<svg xmlns="http://www.w3.org/2000/svg" viewBox="0 0 64 64"><title>Artboard-35</title><g id="Bottle"><path d="M39,23A15,15,0,1,0,54,38,15.017,15.017,0,0,0,39,23Zm0,28A13,13,0,1,1,52,38,13.015,13.015,0,0,1,39,51Z" style="fill:#303135"/><path d="M48.215,41.927,45.488,37.2a1,1,0,0,0-1.732,1l2.662,4.62-3.573,0,.594-.538A1,1,0,1,0,42.1,40.79l-2.516,2.277a1.021,1.021,0,0,0-.074,1.42l2.284,2.52a1,1,0,1,0,1.482-1.344L42.5,44.81l4.044,0h0a1.924,1.924,0,0,0,1.669-2.887Z" style="fill:#303135"/><path d="M37.083,42.946H31.638l1.785-3.091.169.785a1,1,0,0,0,.976.789.962.962,0,0,0,.212-.023,1,1,0,0,0,.767-1.188L34.832,36.9a1.031,1.031,0,0,0-1.192-.773l-3.325.719a1,1,0,0,0,.422,1.955l1.125-.243-2.02,3.5a1.926,1.926,0,0,0,1.668,2.889h5.573a1,1,0,0,0,0-2Z" style="fill:#303135"/><path d="M42.547,35.871a1.021,1.021,0,0,0,1.266-.646l1.041-3.239a1,1,0,0,0-1.905-.611l-.352,1.1-2.021-3.508A1.9,1.9,0,0,0,38.908,28h0a1.908,1.908,0,0,0-1.668.963L34.448,33.8a1,1,0,0,0,1.733,1l2.726-4.722,1.786,3.1-.763-.246a1,1,0,0,0-.614,1.9Z" style="fill:#303135"/><path d="M29,51.95a1,1,0,0,0-1,1V57H12V21H28v2.05a1,1,0,0,0,2,0V16a1,1,0,0,0-.293-.707L24,9.586V7h1a1,1,0,0,0,1-1V1a1,1,0,0,0-1-1H15a1,1,0,0,0-1,1V6a1,1,0,0,0,1,1h1V9.586l-5.707,5.707A1,1,0,0,0,10,16V63a1,1,0,0,0,1,1H29a1,1,0,0,0,1-1V52.95A1,1,0,0,0,29,51.95ZM16,2h8V5H16Zm1.707,8.707A1,1,0,0,0,18,10V7h4v3a1,1,0,0,0,.293.707L28,16.414V19H12V16.414ZM12,62V59H28v3Z" style="fill:#303135"/></g></svg>