<svg xmlns="http://www.w3.org/2000/svg" viewBox="0 0 64 64"><title>Artboard-16</title><g id="Faucet_tap" data-name="Faucet tap"><path d="M45.434,46.538a1,1,0,0,0-1.733,1l3.671,6.368a.247.247,0,0,1-.214.37h0l-5.878-.007,1.464-1.326A1,1,0,0,0,41.4,51.459l-3.386,3.066a1.023,1.023,0,0,0-.074,1.423l3.075,3.391A1,1,0,0,0,42.5,58l-1.567-1.729,6.225.008h0A2.246,2.246,0,0,0,49.1,52.906Z" style="fill:#303135"/><path d="M34.42,54.452h-7.5a.247.247,0,0,1-.213-.37l2.937-5.088.417,1.934a1,1,0,0,0,.976.789,1.025,1.025,0,0,0,.212-.022,1,1,0,0,0,.767-1.188l-.962-4.465a1.032,1.032,0,0,0-1.195-.777l-4.474.967a1,1,0,0,0,.423,1.956l2.276-.493-3.109,5.388a2.246,2.246,0,0,0,1.945,3.369h7.5a1,1,0,0,0,0-2Z" style="fill:#303135"/><path d="M43.15,43.605l1.4-4.358a1,1,0,1,0-1.9-.612l-.712,2.219-3.112-5.4a2.221,2.221,0,0,0-1.946-1.124h0a2.223,2.223,0,0,0-1.946,1.123l-3.756,6.506a1,1,0,1,0,1.732,1l3.757-6.506a.247.247,0,0,1,.427,0l2.939,5.1-1.882-.606a1,1,0,0,0-.614,1.9l4.348,1.4A1.027,1.027,0,0,0,43.15,43.605Z" style="fill:#303135"/><path d="M56,0a1,1,0,0,0-1,1V17H46V15a1,1,0,0,0-1-1H41V9h3a1,1,0,0,0,1-1V3a1,1,0,0,0-1-1H30a1,1,0,0,0-1,1V8a1,1,0,0,0,1,1h3v5H29a1,1,0,0,0-1,1v2H16A10.011,10.011,0,0,0,6,27v6H5a1,1,0,0,0-1,1v4a1,1,0,0,0,1,1H17a1,1,0,0,0,1-1V34a1,1,0,0,0-1-1H16V27H28v2a1,1,0,0,0,1,1H45a1,1,0,0,0,1-1V27h9V63a1,1,0,0,0,2,0V1A1,1,0,0,0,56,0ZM31,4H43V7H31Zm4,5h4v5H35ZM16,37H6V35H16Zm0-12a2,2,0,0,0-2,2v6H8V27a8.009,8.009,0,0,1,8-8H28v6Zm28,3H30V16H44Zm2-3V19h9v6Z" style="fill:#303135"/><path d="M61,0a1,1,0,0,0-1,1V63a1,1,0,0,0,2,0V1A1,1,0,0,0,61,0Z" style="fill:#303135"/><path d="M10.269,41.318C9.422,42.226,2,50.323,2,55a9,9,0,0,0,18,0c0-4.677-7.422-12.774-8.269-13.682A1.031,1.031,0,0,0,10.269,41.318ZM11,62a7.008,7.008,0,0,1-7-7c0-2.972,4.53-8.714,7-11.51,2.47,2.8,7,8.538,7,11.51A7.008,7.008,0,0,1,11,62Z" style="fill:#303135"/><path d="M7,55a1,1,0,0,0-2,0,6.006,6.006,0,0,0,6,6,1,1,0,0,0,0-2A4,4,0,0,1,7,55Z" style="fill:#303135"/></g></svg>