<svg xmlns="http://www.w3.org/2000/svg" viewBox="0 0 64 64"><title>Artboard-1</title><g id="Earth"><path d="M17.764,16.369,23,12.591a20.478,20.478,0,0,0,8.81,2.3,11.376,11.376,0,0,0,6.178-1.7c5.555-3.517,9.449-1.232,9.606-1.137a1,1,0,0,0,1.395-1.351c-.216-.371-5.41-9.1-15.991-9.43-3.4-.107-6.113.808-8.057,2.714a10.946,10.946,0,0,0-3,6.894l-5.35,3.86a1,1,0,0,0,1.17,1.622Zm8.59-10.961a8.657,8.657,0,0,1,6.581-2.13A17.661,17.661,0,0,1,45.423,9.332a12.646,12.646,0,0,0-8.506,2.176c-4.1,2.6-9.361.912-11.933-.2a14.838,14.838,0,0,1,7.454-2.173,1,1,0,1,0,.1-2,16.553,16.553,0,0,0-8.347,2.322A8.242,8.242,0,0,1,26.354,5.408Z" style="fill:#303135"/><path d="M22.9,58.242,17.008,55.6C16.9,53.27,16.064,45.47,10.04,42.313c-5.822-3.05-5.792-7.565-5.788-7.749a1,1,0,0,0-1.867-.533c-.214.373-5.179,9.236-.172,18.564,1.61,3,3.756,4.889,6.379,5.62a9.2,9.2,0,0,0,2.48.332,11.77,11.77,0,0,0,4.989-1.184l6.017,2.7a1,1,0,1,0,.819-1.824ZM9.128,56.288a8.661,8.661,0,0,1-5.153-4.64,17.665,17.665,0,0,1-1-13.841,12.647,12.647,0,0,0,6.138,6.278c4.3,2.251,5.47,7.649,5.792,10.433A14.863,14.863,0,0,1,9.3,49.151a1,1,0,0,0-1.78.912,16.616,16.616,0,0,0,6.191,6.072A8.214,8.214,0,0,1,9.128,56.288Z" style="fill:#303135"/><path d="M63.724,45.262a10.952,10.952,0,0,0-4.472-6.042l-.669-6.563a1,1,0,0,0-1.989.2l.654,6.423c-1.958,1.261-8.3,5.881-8.019,12.676.269,6.567-3.657,8.8-3.818,8.887a1,1,0,0,0,.469,1.883h0c.43,0,10.589-.132,16.163-9.133C63.838,50.7,64.4,47.9,63.724,45.262Zm-3.378,7.281a17.667,17.667,0,0,1-11.487,7.788,12.641,12.641,0,0,0,2.368-8.454c-.2-4.845,3.886-8.559,6.137-10.231-.022,1.961-.317,5.18-1.842,7.539a1,1,0,0,0,.3,1.382.987.987,0,0,0,.541.161,1,1,0,0,0,.841-.458,16.615,16.615,0,0,0,2.164-8.4,8.232,8.232,0,0,1,2.421,3.888A8.664,8.664,0,0,1,60.346,52.543Z" style="fill:#303135"/><path d="M35.059,33.967c-.5-1.363-1.059-2.908-2.415-3.5a3.31,3.31,0,0,0-2.653.108c-2.933,1.218-4.357,2.726-4.231,4.482.166,2.326,3.149,4.112,6.031,4.849a9.773,9.773,0,0,0,2.32.323,2.88,2.88,0,0,0,2.548-1.044c.582-.9.315-2.062-.794-3.445A7.2,7.2,0,0,1,35.059,33.967Zm-4.716,3.3c-1.59-.742-2.606-1.7-2.591-2.436.008-.354.316-1.3,3.005-2.415a1.444,1.444,0,0,1,1.082-.125c.574.253.982,1.372,1.341,2.358A8.352,8.352,0,0,0,34.3,36.986a4.4,4.4,0,0,1,.679,1.1C34.6,38.379,32.536,38.292,30.343,37.269Z" style="fill:#303135"/><path d="M49.532,35.532A17.532,17.532,0,1,0,32,53.065,17.591,17.591,0,0,0,49.532,35.532Zm-2,0a15.479,15.479,0,0,1-.7,4.631,6.048,6.048,0,0,1-3.377-1.938,8.221,8.221,0,0,1-2.176-5.417c.1-2.08-1.177-3.157-2.206-4.022-.947-.8-1.532-1.335-1.636-2.327-.171-1.646,1.68-3.269,2.836-4.052A15.521,15.521,0,0,1,47.532,35.532ZM28.779,20.341a6.892,6.892,0,0,1-.38,4.173,1.967,1.967,0,0,1-1.318.951c-4.605,1.1-5.27,3.663-5.587,6.421-.215,1.88-2.739,4.894-4.877,5.68A15.4,15.4,0,0,1,28.779,20.341ZM21,46.483c.319-1.022,1.177-3.262,2.56-3.173.913.063.969.273,1.207,1.156a3.986,3.986,0,0,0,1.385,2.369c1.234.933,2.982.067,5.006-.935,1.685-.835,3.781-1.875,4.751-1.293.276.166.732.493.69.826-.07.557-1.209,1.652-3.52,2.341-2.368.706-3.334,1.974-3.635,3.062A15.5,15.5,0,0,1,21,46.483Zm11,4.582c-.168,0-.33-.02-.5-.025a3.414,3.414,0,0,1,2.143-1.349c2.838-.847,4.728-2.382,4.934-4.008a2.8,2.8,0,0,0-1.645-2.79c-1.908-1.146-4.437.11-6.669,1.214-.943.468-2.528,1.253-2.912,1.133a2.135,2.135,0,0,1-.66-1.293,2.973,2.973,0,0,0-3-2.632c-2.079-.142-3.44,1.632-4.2,3.394a15.453,15.453,0,0,1-2.489-5.179c3-.952,6.167-4.739,6.473-7.416.274-2.39.684-3.9,4.063-4.7a3.949,3.949,0,0,0,2.572-1.871c1.015-1.7.858-4.081.641-5.476C31.168,20.03,31.58,20,32,20a15.416,15.416,0,0,1,6.331,1.363c-1.355,1.092-3.129,2.986-2.888,5.3a5.4,5.4,0,0,0,2.337,3.65c1.019.857,1.548,1.352,1.5,2.393a10.252,10.252,0,0,0,2.7,6.865,8,8,0,0,0,4.106,2.474A15.538,15.538,0,0,1,32,51.065Z" style="fill:#303135"/></g></svg>