<svg xmlns="http://www.w3.org/2000/svg" viewBox="0 0 64 64"><title>Artboard-20</title><g id="Recycle_Electric" data-name="Recycle Electric"><path d="M63.935,34.287a1,1,0,0,0-.89-.643l-3.21-.143a24.469,24.469,0,0,0-8.964-18.616l-.669-.539A1,1,0,0,0,48.648,15.5l.363.887a44.531,44.531,0,0,1,3.273,16.774l-3.138-.141a1,1,0,0,0-.792,1.665l6.768,7.579a1,1,0,0,0,.712.334h.034a.994.994,0,0,0,.7-.284L63.7,35.359A1,1,0,0,0,63.935,34.287Zm-8.017,5.868-4.49-5.028,1.8.081a.978.978,0,0,0,.726-.268,1,1,0,0,0,.319-.707,46.628,46.628,0,0,0-2.3-15.573A22.615,22.615,0,0,1,57.83,34.432a1,1,0,0,0,.955,1.024l1.864.083Z" style="fill:#303135"/><path d="M33.164,11.716l-.141,3.138a1,1,0,0,0,1.665.792l7.58-6.768a1,1,0,0,0,.049-1.444L35.359.3a1,1,0,0,0-1.714.653L33.5,4.165a24.477,24.477,0,0,0-18.615,8.964l-.539.668A1,1,0,0,0,15.5,15.351l.887-.362A44.549,44.549,0,0,1,33.1,11.716Zm1.268-5.547h.025a1,1,0,0,0,1-.955l.083-1.865,4.617,4.732-5.028,4.49.08-1.8a1,1,0,0,0-.974-1.044c-.376-.01-.752-.014-1.129-.014a46.661,46.661,0,0,0-14.445,2.31A22.642,22.642,0,0,1,34.432,6.169Z" style="fill:#303135"/><path d="M8.878,21.733a1,1,0,0,0-1.444-.05L.3,28.641a1,1,0,0,0,.653,1.715l3.21.143a24.469,24.469,0,0,0,8.964,18.616l.669.539A1,1,0,0,0,15.352,48.5l-.363-.887a44.531,44.531,0,0,1-3.273-16.774l3.138.141a.965.965,0,0,0,.949-.571,1,1,0,0,0-.157-1.094Zm1.9,7.059a1,1,0,0,0-1.045.975,46.628,46.628,0,0,0,2.3,15.573A22.615,22.615,0,0,1,6.17,29.568a1,1,0,0,0-.955-1.024l-1.864-.083,4.731-4.616,4.49,5.028Z" style="fill:#303135"/><path d="M48.5,48.649l-.887.362A44.549,44.549,0,0,1,30.9,52.284h-.06l.141-3.138a1,1,0,0,0-1.665-.792l-7.58,6.768a1,1,0,0,0-.049,1.444L28.641,63.7a1,1,0,0,0,1.714-.653l.144-3.21a24.477,24.477,0,0,0,18.615-8.964l.539-.668A1,1,0,0,0,48.5,48.649ZM29.568,57.831h-.025a1,1,0,0,0-1,.955l-.083,1.865-4.617-4.732,5.028-4.49-.08,1.8a1,1,0,0,0,.974,1.044,46.419,46.419,0,0,0,15.574-2.3A22.737,22.737,0,0,1,29.568,57.831Z" style="fill:#303135"/><path d="M28.529,34l-4.6,11.632a1,1,0,0,0,1.654,1.057l17.143-18A1,1,0,0,0,42,27H34.618L37.9,20.447A1,1,0,0,0,37,19H29.541a1,1,0,0,0-.865.5l-7.541,13A1,1,0,0,0,22,34Zm1.588-13h5.265L32.1,27.553A1,1,0,0,0,33,29h6.667L27.678,41.588l3.252-8.22A1,1,0,0,0,30,32H23.736Z" style="fill:#303135"/></g></svg>