<svg xmlns="http://www.w3.org/2000/svg" viewBox="0 0 64 64"><title>Artboard-15</title><g id="Recycle_Bag" data-name="Recycle Bag"><path d="M40.163,40.786a1,1,0,1,0-1.732,1l3.539,6.141a.187.187,0,0,1,0,.2.192.192,0,0,1-.175.1l-5.576-.007,1.343-1.216a1,1,0,1,0-1.341-1.483l-3.266,2.956A1.022,1.022,0,0,0,32.88,49.9l2.965,3.27a1,1,0,1,0,1.482-1.344l-1.456-1.606,5.922.007h0a2.2,2.2,0,0,0,1.907-3.3Z" style="fill:#303135"/><path d="M29.513,48.4H22.278a.189.189,0,0,1-.174-.1.185.185,0,0,1,0-.2l2.785-4.826.382,1.775a1,1,0,0,0,.977.789,1.032,1.032,0,0,0,.212-.022,1,1,0,0,0,.767-1.188L26.3,40.318a1.032,1.032,0,0,0-1.194-.776l-4.315.933a1,1,0,1,0,.422,1.955l2.117-.457L20.371,47.1a2.2,2.2,0,0,0,1.907,3.3h7.235a1,1,0,1,0,0-2Z" style="fill:#303135"/><path d="M37.964,37.988l1.349-4.2a1,1,0,1,0-1.9-.612l-.662,2.063L33.787,30.1A2.178,2.178,0,0,0,31.881,29h0a2.18,2.18,0,0,0-1.907,1.1l-3.622,6.273a1,1,0,1,0,1.732,1L31.705,31.1a.2.2,0,0,1,.35,0l2.787,4.835-1.727-.556a1,1,0,1,0-.613,1.9L36.7,38.634A1.024,1.024,0,0,0,37.964,37.988Z" style="fill:#303135"/><path d="M58.9,39.957a10.5,10.5,0,0,0-7.087-11.413A10.515,10.515,0,0,0,42,20H40.941a8.914,8.914,0,0,0-.592-2.344A10.278,10.278,0,0,0,44,15.663,10.079,10.079,0,0,0,47.212,10.7c.171-.6.3-1.212.431-1.826a10.775,10.775,0,0,1,1.151-3.484,3.812,3.812,0,0,1,.5-.7,1,1,0,0,0,.193-1.1,1.034,1.034,0,0,0-.942-.6,16.706,16.706,0,0,0-14.6,9.217,8.789,8.789,0,0,0-3.882,0A16.7,16.7,0,0,0,15.458,3a1,1,0,0,0-.749,1.693,3.944,3.944,0,0,1,.509.72,10.789,10.789,0,0,1,1.139,3.465c.129.614.26,1.227.43,1.823a10.082,10.082,0,0,0,3.22,4.964,10.259,10.259,0,0,0,3.644,1.991A8.921,8.921,0,0,0,23.059,20H21.947a10.487,10.487,0,0,0-9.758,8.543A10.5,10.5,0,0,0,5.1,39.957a11.482,11.482,0,0,0,5.62,21A.994.994,0,0,0,11,61H53a.937.937,0,0,0,.264-.039,11.482,11.482,0,0,0,5.634-21ZM35.864,12.871a14.807,14.807,0,0,1,10.786-7.7,15.252,15.252,0,0,0-.963,3.3c-.121.568-.241,1.137-.4,1.7a8.262,8.262,0,0,1-5.91,5.69c-.075-.108-.6-.774-.749-.934l3.057-2.874a1,1,0,1,0-1.37-1.457L37.109,13.6A12.465,12.465,0,0,0,35.864,12.871ZM38.929,20H25.071a7,7,0,0,1,13.858,0ZM24.623,15.849a8.265,8.265,0,0,1-5.911-5.693c-.158-.555-.278-1.124-.4-1.692a15.323,15.323,0,0,0-.961-3.294,14.8,14.8,0,0,1,10.783,7.7,13.312,13.312,0,0,0-1.244.728l-3.206-3.015a1,1,0,1,0-1.37,1.457l3.057,2.874C25.287,15.007,24.737,15.686,24.623,15.849ZM52.952,58.976a1,1,0,0,0-.174.024H11.229a1.024,1.024,0,0,0-.175-.024A9.484,9.484,0,0,1,6.707,41.309a1,1,0,0,0,.473-1.067,8.495,8.495,0,0,1,6.155-9.952,1,1,0,0,0,.737-.844A8.478,8.478,0,0,1,22,22H41.945a8.5,8.5,0,0,1,7.983,7.447,1,1,0,0,0,.737.844,8.493,8.493,0,0,1,6.155,9.952,1,1,0,0,0,.473,1.067,9.484,9.484,0,0,1-4.341,17.667Z" style="fill:#303135"/></g></svg>