<svg xmlns="http://www.w3.org/2000/svg" viewBox="0 0 64 64"><title>Artboard-30</title><g id="Achivement"><path d="M38.488,27.2a1,1,0,1,0-1.732,1l2.662,4.62-3.573,0,.594-.538A1,1,0,1,0,35.1,30.79l-2.516,2.277a1.021,1.021,0,0,0-.074,1.42l2.284,2.52a1,1,0,1,0,1.482-1.344L35.5,34.81l4.044,0h0a1.924,1.924,0,0,0,1.669-2.887Z" style="fill:#303135"/><path d="M30.083,32.946H24.638l1.785-3.091.169.785a1,1,0,0,0,.976.789.962.962,0,0,0,.212-.023,1,1,0,0,0,.767-1.188L27.832,26.9a1.032,1.032,0,0,0-1.192-.773l-3.325.719a1,1,0,0,0,.422,1.955l1.125-.243-2.02,3.5a1.926,1.926,0,0,0,1.668,2.889h5.573a1,1,0,0,0,0-2Z" style="fill:#303135"/><path d="M35.547,25.871a1.027,1.027,0,0,0,1.266-.646l1.041-3.239a1,1,0,0,0-1.905-.611l-.352,1.1-2.021-3.508A1.9,1.9,0,0,0,31.908,18h0a1.908,1.908,0,0,0-1.668.963L27.448,23.8a1,1,0,0,0,1.733,1l2.726-4.722,1.786,3.1-.763-.246a1,1,0,1,0-.614,1.9Z" style="fill:#303135"/><path d="M48,28A16,16,0,1,0,32,44,16.019,16.019,0,0,0,48,28ZM32,42A14,14,0,1,1,46,28,14.015,14.015,0,0,1,32,42Z" style="fill:#303135"/><path d="M63.707,49.293,52.569,38.155A5.653,5.653,0,0,0,54.9,35.419c.5-1.527-.1-3.092-.681-4.6A8.774,8.774,0,0,1,53.457,28a8.774,8.774,0,0,1,.758-2.814c.58-1.513,1.179-3.078.681-4.605-.518-1.592-2.024-2.562-3.353-3.419a8.349,8.349,0,0,1-2.183-1.74,8.437,8.437,0,0,1-1.006-2.641c-.426-1.587-.868-3.227-2.206-4.2S43.134,7.707,41.5,7.79a8.594,8.594,0,0,1-2.865-.144,8.224,8.224,0,0,1-2.29-1.507C35.106,5.136,33.706,4,32,4s-3.106,1.137-4.343,2.139a8.213,8.213,0,0,1-2.289,1.507,8.6,8.6,0,0,1-2.866.145c-1.635-.084-3.329-.169-4.651.791-1.337.971-1.779,2.612-2.2,4.2a8.427,8.427,0,0,1-1.006,2.641,8.326,8.326,0,0,1-2.185,1.741c-1.328.857-2.833,1.827-3.351,3.418-.5,1.527.1,3.092.681,4.605A8.774,8.774,0,0,1,10.543,28a8.774,8.774,0,0,1-.758,2.814c-.58,1.513-1.179,3.078-.681,4.6a5.649,5.649,0,0,0,2.327,2.736L.293,49.293A1,1,0,0,0,1,51H9v8a1,1,0,0,0,.617.924A.987.987,0,0,0,10,60a1,1,0,0,0,.707-.293L22.19,48.224l.313-.014a8.642,8.642,0,0,1,2.865.144,8.224,8.224,0,0,1,2.29,1.507C28.894,50.864,30.294,52,32,52s3.106-1.137,4.343-2.139a8.213,8.213,0,0,1,2.289-1.507,8.624,8.624,0,0,1,2.866-.145l.312.015L53.293,59.707A1,1,0,0,0,54,60a.987.987,0,0,0,.383-.076A1,1,0,0,0,55,59V51h8a1,1,0,0,0,.707-1.707ZM10,49H3.414l9.719-9.719a6.009,6.009,0,0,1,1.507,1.3,8.437,8.437,0,0,1,1.006,2.641c.426,1.587.868,3.227,2.206,4.2a4.164,4.164,0,0,0,1.622.694L11,56.586V50A1,1,0,0,0,10,49Zm28.017-2.548a9.629,9.629,0,0,0-2.935,1.857C34.01,49.179,33,50,32,50s-2.01-.821-3.081-1.691a9.64,9.64,0,0,0-2.936-1.857,7.109,7.109,0,0,0-2.187-.287c-.464,0-.932.023-1.394.047-.217.011-.43.02-.642.028h0a4.542,4.542,0,0,1-2.733-.441c-.765-.555-1.1-1.791-1.449-3.1a9.88,9.88,0,0,0-1.322-3.3,9.827,9.827,0,0,0-2.715-2.241c-1.149-.741-2.236-1.442-2.534-2.357-.278-.855.171-2.028.646-3.27A10.115,10.115,0,0,0,12.543,28a10.115,10.115,0,0,0-.891-3.53c-.475-1.242-.924-2.415-.646-3.27.3-.914,1.384-1.614,2.533-2.356A9.849,9.849,0,0,0,16.255,16.6a9.871,9.871,0,0,0,1.322-3.3c.352-1.308.685-2.544,1.448-3.1s2.026-.482,3.376-.413a10.058,10.058,0,0,0,3.582-.24,9.629,9.629,0,0,0,2.935-1.857C29.99,6.821,31,6,32,6s2.01.821,3.081,1.691a9.64,9.64,0,0,0,2.936,1.857,10.066,10.066,0,0,0,3.581.24c1.349-.069,2.624-.133,3.376.413s1.1,1.791,1.449,3.1a9.88,9.88,0,0,0,1.322,3.3,9.827,9.827,0,0,0,2.715,2.241c1.149.741,2.236,1.442,2.534,2.357.278.855-.171,2.028-.646,3.27A10.115,10.115,0,0,0,51.457,28a10.115,10.115,0,0,0,.891,3.53c.475,1.242.924,2.415.646,3.27-.3.914-1.384,1.614-2.533,2.356A9.849,9.849,0,0,0,47.745,39.4a9.871,9.871,0,0,0-1.322,3.3c-.352,1.308-.685,2.544-1.448,3.1a4.559,4.559,0,0,1-2.732.442h0c-.211-.009-.424-.018-.64-.029A10.029,10.029,0,0,0,38.017,46.452ZM54,49a1,1,0,0,0-1,1v6.586l-8.474-8.474a4.183,4.183,0,0,0,1.623-.694c1.337-.971,1.779-2.612,2.2-4.2a8.427,8.427,0,0,1,1.006-2.641,6.012,6.012,0,0,1,1.507-1.3L60.586,49Z" style="fill:#303135"/></g></svg>