<svg xmlns="http://www.w3.org/2000/svg" viewBox="0 0 64 64"><title>Artboard-21</title><g id="Box"><path d="M29.919,36.2a1,1,0,0,0-1.732,1l2.938,5.09-4.184-.005.788-.713a1,1,0,1,0-1.343-1.482l-2.708,2.452a1.021,1.021,0,0,0-.074,1.421l2.46,2.713a1,1,0,1,0,1.481-1.344L26.6,44.281l4.527.005h0a2,2,0,0,0,1.73-2.994Z" style="fill:#303135"/><path d="M20.937,42.428l-6,.005,2.09-3.621.223,1.04a1,1,0,0,0,.977.789.947.947,0,0,0,.211-.023,1,1,0,0,0,.768-1.188l-.77-3.572a1.028,1.028,0,0,0-1.193-.774l-3.579.773a1,1,0,0,0,.422,1.956l1.38-.3-2.261,3.919a2,2,0,0,0,1.73,2.995h6a1,1,0,0,0,0-2Z" style="fill:#303135"/><path d="M26.842,34.66a1.026,1.026,0,0,0,1.268-.646l1.119-3.488a1,1,0,0,0-1.9-.611l-.432,1.346L24.63,27.334a2,2,0,0,0-3.46,0l-3,5.2a1,1,0,1,0,1.731,1l3-5.2,2.091,3.629-1.011-.326a1,1,0,0,0-.614,1.9Z" style="fill:#303135"/><path d="M63.875,14.516A1,1,0,0,0,63,14H45a1,1,0,0,0-.848.47L40,21.113,35.848,14.47A1,1,0,0,0,35,14H1a1,1,0,0,0-.848,1.53L5,23.287V49a1,1,0,0,0,1,1H58a1,1,0,0,0,1-1V23.287l4.848-7.757A1,1,0,0,0,63.875,14.516ZM34.446,16l3.75,6H6.554L2.8,16ZM7,24H39V48H7ZM57,48H41V24H57Zm.446-26H41.8l3.75-6H61.2Z" style="fill:#303135"/></g></svg>