<svg xmlns="http://www.w3.org/2000/svg" viewBox="0 0 64 64"><title>Artboard-29</title><g id="Label"><path d="M40.125,57.286a2,2,0,0,0,1.73-2.994L38.919,49.2a1,1,0,0,0-1.732,1l2.938,5.09-4.184-.005.788-.713a1,1,0,0,0-1.342-1.482l-2.708,2.452a1.02,1.02,0,0,0-.075,1.421l2.459,2.713a1,1,0,0,0,1.483-1.344l-.95-1.047,4.527.005Z" style="fill:#303135"/><path d="M26.244,48.084l-3.579.773a1,1,0,0,0,.422,1.956l1.38-.3-2.262,3.92a2,2,0,0,0,1.731,2.994h6a1,1,0,0,0,0-2l-6,.005,2.091-3.621.224,1.04a1,1,0,0,0,.977.789.96.96,0,0,0,.211-.023,1,1,0,0,0,.767-1.188l-.77-3.572A1.035,1.035,0,0,0,26.244,48.084Z" style="fill:#303135"/><path d="M37.583,42.269a1,1,0,0,0-1.258.646l-.432,1.346L33.63,40.335a1.974,1.974,0,0,0-1.727-1h0a1.979,1.979,0,0,0-1.73,1l-3,5.2a1,1,0,1,0,1.732,1l3-5.2,2.092,3.629-1.011-.326a1,1,0,0,0-.614,1.9l3.479,1.12a1.021,1.021,0,0,0,1.266-.646l1.12-3.488A1,1,0,0,0,37.583,42.269Z" style="fill:#303135"/><path d="M47.844,18.463l-7-11A1,1,0,0,0,40,7H24a1,1,0,0,0-.845.465l-2.421,3.8A20.64,20.64,0,0,1,18,1a1,1,0,0,0-2,0,22.628,22.628,0,0,0,3.878,12.676c.013.022.026.043.041.064a22.6,22.6,0,0,0,6.324,6.205c.008,0,.013.014.022.019l.011,0c.558.365,1.128.714,1.724,1.032l3.529,1.883a1,1,0,0,0,.942-1.764l-3.53-1.884c-.263-.14-.515-.294-.77-.445A4.98,4.98,0,0,1,30.312,17.3,4.771,4.771,0,0,1,32,17a5,5,0,1,1-4.858,6.184,1,1,0,0,0-1.944.472A7,7,0,1,0,32,15a6.742,6.742,0,0,0-2.376.419,6.937,6.937,0,0,0-3.132,2.28,20.586,20.586,0,0,1-4.564-4.584L24.551,9h14.9L46,19.291V62H18V19.291l1.254-1.975a1,1,0,0,0-1.688-1.072l-1.41,2.22A1,1,0,0,0,16,19V63a1,1,0,0,0,1,1H47a1,1,0,0,0,1-1V19A1.012,1.012,0,0,0,47.844,18.463Z" style="fill:#303135"/></g></svg>