<svg xmlns="http://www.w3.org/2000/svg" viewBox="0 0 64 64"><title>Artboard-9</title><g id="Garbage_Truck" data-name="Garbage Truck"><path d="M51,40a3,3,0,1,0,3,3A3,3,0,0,0,51,40Zm0,4a1,1,0,1,1,1-1A1,1,0,0,1,51,44Z" style="fill:#303135"/><path d="M26,40a3,3,0,1,0,3,3A3,3,0,0,0,26,40Zm0,4a1,1,0,1,1,1-1A1,1,0,0,1,26,44Z" style="fill:#303135"/><path d="M12,40a3,3,0,1,0,3,3A3,3,0,0,0,12,40Zm0,4a1,1,0,1,1,1-1A1,1,0,0,1,12,44Z" style="fill:#303135"/><path d="M63,40H62V28a1.124,1.124,0,0,0-.241-.651l-6-7A1,1,0,0,0,55,20H42a1,1,0,0,0-1,1V40H39V16a1,1,0,0,0-1-1H11a1,1,0,0,0-.747.335l-8,9A1,1,0,0,0,2,25V40H1a1,1,0,0,0-1,1v4a1,1,0,0,0,1,1H6.812a5.986,5.986,0,0,0,10.376,0h3.624a5.986,5.986,0,0,0,10.376,0H45.812a5.986,5.986,0,0,0,10.376,0H63a1,1,0,0,0,1-1V41A1,1,0,0,0,63,40Zm-3-5H58V33h2Zm-1.174-8H48V22h6.54ZM43,22h3v6a1,1,0,0,0,1,1H60v2H57a1,1,0,0,0-1,1v4a1,1,0,0,0,1,1h3v3H56.188a5.986,5.986,0,0,0-10.376,0H43ZM4,25.38,11.449,17H37V40H31.188a5.986,5.986,0,0,0-10.376,0H17.188A5.986,5.986,0,0,0,6.812,40H4ZM2,44V42H6.09a5.6,5.6,0,0,0,0,2Zm10,3a4,4,0,1,1,4-4A4,4,0,0,1,12,47Zm5.91-3a5.6,5.6,0,0,0,0-2h2.18a5.6,5.6,0,0,0,0,2ZM26,47a4,4,0,1,1,4-4A4,4,0,0,1,26,47Zm5.91-3a5.6,5.6,0,0,0,0-2H45.09a5.6,5.6,0,0,0,0,2ZM51,47a4,4,0,1,1,4-4A4,4,0,0,1,51,47Zm11-3H56.91a5.6,5.6,0,0,0,0-2H62Z" style="fill:#303135"/><path d="M47,33h2a1,1,0,0,0,0-2H47a1,1,0,0,0,0,2Z" style="fill:#303135"/><path d="M25.041,26.156a1,1,0,0,0-.367,1.365l1.983,3.443-2.053,0,.111-.1a1,1,0,1,0-1.342-1.482l-2.032,1.839a1.02,1.02,0,0,0-.073,1.419l1.844,2.035a1,1,0,0,0,.742.328,1,1,0,0,0,.741-1.672l-.333-.367,2.83,0h0a1.747,1.747,0,0,0,1.513-2.62l-2.2-3.822A1,1,0,0,0,25.041,26.156Z" style="fill:#303135"/><path d="M14.367,28.1,14.851,28l-1.414,2.449a1.749,1.749,0,0,0,1.514,2.623h4.5a1,1,0,1,0,0-2H15.388L16.413,29.3l.031.146a1,1,0,0,0,.977.789,1.032,1.032,0,0,0,.212-.022A1,1,0,0,0,18.4,29.02l-.577-2.679a1.03,1.03,0,0,0-1.192-.773l-2.685.58a1,1,0,0,0,.422,1.956Z" style="fill:#303135"/><path d="M17.523,25.144a1,1,0,0,0,1.367-.367l2.035-3.525,1.027,1.782-.142-.046a1,1,0,0,0-.614,1.905l2.61.839a1.029,1.029,0,0,0,1.264-.647l.84-2.615a1,1,0,1,0-1.9-.611l-.151.471-1.416-2.455a1.748,1.748,0,0,0-3.028,0l-2.254,3.9A1,1,0,0,0,17.523,25.144Z" style="fill:#303135"/></g></svg>