<svg xmlns="http://www.w3.org/2000/svg" viewBox="0 0 64 64"><title>Artboard-6</title><g id="Plastic_Bag" data-name="Plastic Bag"><path d="M40.325,43.037a1,1,0,1,0-1.732,1l3.618,6.277a.218.218,0,0,1,0,.229.215.215,0,0,1-.2.114h0l-5.756-.007,1.415-1.282a1,1,0,0,0-1.342-1.482l-3.338,3.022a1.021,1.021,0,0,0-.074,1.422l3.031,3.343a1,1,0,1,0,1.481-1.344l-1.523-1.679,6.1.007h0a2.229,2.229,0,0,0,1.93-3.342Z" style="fill:#303135"/><path d="M29.457,50.831H22.063a.23.23,0,0,1-.2-.344l2.877-4.982.4,1.87a1,1,0,0,0,.976.789,1.025,1.025,0,0,0,.212-.022,1,1,0,0,0,.767-1.188l-.949-4.4a1.033,1.033,0,0,0-1.194-.776l-4.411.953a1,1,0,0,0,.423,1.956l2.213-.479-3.049,5.282a2.229,2.229,0,0,0,1.931,3.343h7.394a1,1,0,1,0,0-2Z" style="fill:#303135"/><path d="M38.075,40.159l1.38-4.3a1,1,0,0,0-1.905-.611l-.692,2.156-3.05-5.291A2.205,2.205,0,0,0,31.877,31h0a2.209,2.209,0,0,0-1.93,1.114l-3.7,6.413a1,1,0,0,0,1.733,1l3.7-6.413a.228.228,0,0,1,.4,0l2.878,4.992-1.82-.586a1,1,0,0,0-.613,1.9l4.286,1.38A1.026,1.026,0,0,0,38.075,40.159Z" style="fill:#303135"/><path d="M54.121,6.607a5.983,5.983,0,0,0-4.349-5.569l-3.5-1A1,1,0,0,0,45,.914l-1.92,22.069a15.019,15.019,0,0,1-4.768-.932A17.27,17.27,0,0,0,32,21a17.27,17.27,0,0,0-6.316,1.051,15.019,15.019,0,0,1-4.768.932L19,.914A1,1,0,0,0,17.725.039l-3.5,1A5.983,5.983,0,0,0,9.879,6.607L8.345,52.634A11,11,0,0,0,19.339,64H44.661A11,11,0,0,0,55.655,52.634ZM51.13,59.257A8.925,8.925,0,0,1,44.661,62H19.339a9,9,0,0,1-8.995-9.3L11.878,6.674a3.989,3.989,0,0,1,2.9-3.713L17.109,2.3,19,24.086A1,1,0,0,0,20,25a17.27,17.27,0,0,0,6.316-1.051A15.353,15.353,0,0,1,32,23a15.353,15.353,0,0,1,5.684.949A17.27,17.27,0,0,0,44,25a1,1,0,0,0,1-.914L46.891,2.3l2.332.666a3.989,3.989,0,0,1,2.9,3.713L53.656,52.7A8.925,8.925,0,0,1,51.13,59.257Z" style="fill:#303135"/></g></svg>