<svg xmlns="http://www.w3.org/2000/svg" viewBox="0 0 64 64"><title>Artboard-22</title><g id="Milk_Box" data-name="Milk Box"><path d="M56,25a.994.994,0,0,0-.241-.65L50,17.63V5a5.006,5.006,0,0,0-5-5H13A5.006,5.006,0,0,0,8,5V7A1,1,0,0,0,9,8h5v9.63L8.241,24.35A1.117,1.117,0,0,0,8,25V63a1,1,0,0,0,1,1H55a.983.983,0,0,0,.365-.074,173.211,173.211,0,0,1,.286-.167c.01-.008.013-.02.022-.029a.985.985,0,0,0,.135-.172,1.012,1.012,0,0,0,.1-.142,1.052,1.052,0,0,0,.046-.169,1.017,1.017,0,0,0,.043-.21c0-.013.007-.024.007-.037ZM54,60.3,50,55.63V20.7l4,4.667ZM15.46,19H46.826L42.54,24H11.174ZM44,25.37,48,20.7V55.63L44,60.3Zm5,32.166L52.826,62H45.174ZM10,5a3,3,0,0,1,3-3H41a5.269,5.269,0,0,0-1,3V6H10ZM41,8a1,1,0,0,0,1-1V5a3,3,0,0,1,6,0V17H16V8ZM10,26H42V62H10Z" style="fill:#303135"/><path d="M32.7,43.529a1,1,0,0,0-1.733,1l2.865,4.856-3.942-.005.69-.625a1,1,0,0,0-1.342-1.482L26.63,49.636a1.021,1.021,0,0,0-.074,1.42l2.372,2.616a1,1,0,1,0,1.482-1.344l-.862-.95,4.285.005h0a1.961,1.961,0,0,0,1.7-2.941Z" style="fill:#303135"/><path d="M24.01,49.52l-5.754.057,1.969-3.411.2.912a1,1,0,1,0,1.955-.422l-.742-3.444a1.029,1.029,0,0,0-1.193-.774l-3.451.747a1,1,0,0,0,.423,1.955l1.251-.271-2.141,3.708a1.963,1.963,0,0,0,1.7,2.943H24.01a1,1,0,0,0,0-2Z" style="fill:#303135"/><path d="M29.7,42.1a1.031,1.031,0,0,0,1.266-.647l1.08-3.362a1,1,0,1,0-1.9-.611l-.392,1.22L27.6,34.981A1.942,1.942,0,0,0,25.9,34h0a1.941,1.941,0,0,0-1.7.98L21.307,40a1,1,0,0,0,1.733,1l2.831-5.019,1.971,3.42-.889-.286a1,1,0,0,0-.612,1.905Z" style="fill:#303135"/></g></svg>