<svg xmlns="http://www.w3.org/2000/svg" viewBox="0 0 64 64"><title>Artboard-17</title><g id="No_Plastic" data-name="No Plastic"><path d="M32,0A32,32,0,1,0,64,32,32.036,32.036,0,0,0,32,0Zm0,62A30,30,0,1,1,62,32,30.034,30.034,0,0,1,32,62Z" style="fill:#303135"/><path d="M12.267,13.673a1,1,0,0,0-1.463.052A27.985,27.985,0,0,0,50.275,53.2a1,1,0,0,0,.052-1.463Zm30.875,33.7A3.992,3.992,0,0,1,41,48H23a4,4,0,0,1-4-4V23.234ZM32,58A25.987,25.987,0,0,1,11.628,15.862L17,21.234V44a6.006,6.006,0,0,0,6,6H41a5.992,5.992,0,0,0,3.574-1.192l3.564,3.564A25.914,25.914,0,0,1,32,58Z" style="fill:#303135"/><path d="M32,4a27.9,27.9,0,0,0-18.275,6.8,1,1,0,0,0-.052,1.463l15.44,15.44,22.62,22.62a1,1,0,0,0,.707.293h.036a1,1,0,0,0,.72-.345A27.985,27.985,0,0,0,32,4ZM20.234,16H23v2.766Zm12,12H37a4,4,0,0,0,4-4V16h4V40.766ZM52.372,48.138,47,42.766V15a1,1,0,0,0-1-1H40a1,1,0,0,0-1,1v9a2,2,0,0,1-2,2H30.234L25,20.766V15a1,1,0,0,0-1-1H18.234l-2.372-2.372a25.987,25.987,0,0,1,36.51,36.51Z" style="fill:#303135"/></g></svg>