<svg xmlns="http://www.w3.org/2000/svg" viewBox="0 0 64 64"><title>Artboard-2</title><g id="Leaf"><path d="M10.59,21.564a.992.992,0,0,0,.6-.2l7.572-5.706a27.631,27.631,0,0,0,12.445,3.461,15.166,15.166,0,0,0,8.516-2.44C47.772,11.355,53.438,14.854,53.67,15a1,1,0,0,0,1.421-1.323C54.791,13.141,47.584.486,32.879.012,28.3-.14,24.646,1.1,22,3.693c-3.674,3.6-4.218,8.644-4.3,10.259L9.987,19.765a1,1,0,0,0,.6,1.8ZM23.4,5.123c2.243-2.2,5.412-3.243,9.418-3.112,9.595.309,15.86,6.457,18.724,10.063-2.868-.653-7.447-.683-12.918,2.936-6.405,4.236-14.716.954-17.989-.648,2.248-1.409,6.977-3.959,11.489-3.729a1,1,0,1,0,.1-2c-4.9-.254-9.8,2.266-12.352,3.834A13.259,13.259,0,0,1,23.4,5.123Z" style="fill:#303135"/><path d="M32.163,58.883l-8.689-3.766c-.07-2.934-.907-14.4-9.6-18.824-8.6-4.376-8.429-11.085-8.418-11.364a1,1,0,0,0-1.86-.557c-.313.53-7.567,13.147-.627,26.225,2.175,4.1,5.1,6.685,8.68,7.686a12.794,12.794,0,0,0,3.445.461,16.919,16.919,0,0,0,7.433-1.857l8.839,3.831a1,1,0,0,0,.795-1.835ZM12.172,56.352c-3.028-.852-5.529-3.1-7.435-6.693C.212,41.131,2.338,32.6,4,28.279c.875,2.829,3.14,6.832,8.97,9.8,6.837,3.477,8.181,12.378,8.443,16.048-2.341-1.264-6.877-4.116-8.928-8.17a1,1,0,1,0-1.785.9c2.233,4.415,6.862,7.442,9.479,8.881A13.035,13.035,0,0,1,12.172,56.352Z" style="fill:#303135"/><path d="M63.617,40.013a15.865,15.865,0,0,0-6.637-8.8l-1.132-9.649a1,1,0,0,0-1.987.233l1.113,9.481c-2.489,1.533-11.909,8-11.359,17.794.547,9.709-5.3,12.912-5.541,13.041A1,1,0,0,0,38.521,64H38.6c1.289,0,15.208-.292,22.762-12.572C63.788,47.48,64.548,43.64,63.617,40.013ZM59.656,50.38C54.6,58.605,46.2,61.009,41.667,61.711c2-2.175,4.316-6.159,3.945-12.753-.433-7.709,6.517-13.329,9.54-15.4.089,2.673-.086,8.07-2.55,11.9a1,1,0,0,0,1.682,1.081c2.668-4.151,2.955-9.7,2.882-12.7a13.192,13.192,0,0,1,4.514,6.671C62.471,43.592,61.79,46.912,59.656,50.38Z" style="fill:#303135"/></g></svg>