<svg xmlns="http://www.w3.org/2000/svg" viewBox="0 0 64 64"><title>Artboard-25</title><g id="Smartphone"><path d="M48.123,26.161a1,1,0,0,0-.367,1.365l2.662,4.621-3.573,0,.594-.539A1,1,0,1,0,46.1,30.122L43.582,32.4a1.029,1.029,0,0,0-.074,1.421l2.284,2.52A1,1,0,0,0,47.274,35l-.774-.854,4.045,0a1.925,1.925,0,0,0,1.67-2.887l-2.727-4.732A1,1,0,0,0,48.123,26.161Z" style="fill:#303135"/><path d="M34.737,28.134l1.125-.243-2.02,3.5a1.926,1.926,0,0,0,1.668,2.888h5.573a1,1,0,0,0,0-2H35.639l1.784-3.09.169.785a1,1,0,0,0,.976.789.962.962,0,0,0,.212-.023,1,1,0,0,0,.767-1.188l-.715-3.318a1.032,1.032,0,0,0-1.192-.773l-3.325.719a1,1,0,0,0,.422,1.955Z" style="fill:#303135"/><path d="M38.814,24.5a1,1,0,0,0,1.367-.366l2.726-4.723,1.787,3.1-.764-.246a1,1,0,1,0-.614,1.9L46.547,25.2a1.027,1.027,0,0,0,1.266-.646l1.041-3.239a1,1,0,0,0-1.905-.611L46.6,21.8,44.576,18.3a1.9,1.9,0,0,0-1.669-.963h0a1.905,1.905,0,0,0-1.667.963l-2.791,4.833A1,1,0,0,0,38.814,24.5Z" style="fill:#303135"/><path d="M57,0H29a4,4,0,0,0-4,4V50a4,4,0,0,0,4,4h8v4a1,1,0,0,0,1,1h4v2a1,1,0,0,1-1,1H15a4,4,0,0,1-4-4V35.9A5.009,5.009,0,0,0,15,31V27h1a1,1,0,0,0,0-2H13V21a1,1,0,0,0-2,0v4H9V21a1,1,0,0,0-2,0v4H4a1,1,0,0,0,0,2H5v4a5.009,5.009,0,0,0,4,4.9V58a6.006,6.006,0,0,0,6,6H41a3,3,0,0,0,3-3V59h4a1,1,0,0,0,1-1V54h8a4,4,0,0,0,4-4V4A4,4,0,0,0,57,0ZM7,31V27h6v4a3,3,0,0,1-6,0ZM29,2H57a2,2,0,0,1,2,2V6H27V4A2,2,0,0,1,29,2ZM59,46H27V8H59ZM47,57H39V54h8Zm10-5H29a2,2,0,0,1-2-2V48H59v2A2,2,0,0,1,57,52Z" style="fill:#303135"/><path d="M41,5h4a1,1,0,0,0,0-2H41a1,1,0,0,0,0,2Z" style="fill:#303135"/><circle cx="43" cy="50" r="1" style="fill:#303135"/></g></svg>