<svg xmlns="http://www.w3.org/2000/svg" viewBox="0 0 64 64"><title>Artboard-7</title><g id="Pin"><path d="M40,23.738a1,1,0,1,0-1.732,1L41.881,31,36.183,31l1.271-1.15a1,1,0,0,0-1.343-1.483l-3.192,2.891a1.023,1.023,0,0,0-.074,1.422l2.9,3.2a1,1,0,1,0,1.481-1.344L35.834,33l7.778.009h0a1,1,0,0,0,.866-1.5Z" style="fill:#303135"/><path d="M29.567,31.17H22.191l2.846-4.931.362,1.678a1,1,0,0,0,.976.79,1.025,1.025,0,0,0,.212-.022,1,1,0,0,0,.767-1.188l-.907-4.21a1.031,1.031,0,0,0-1.194-.776l-4.219.912a1,1,0,0,0,.423,1.955l2.02-.437L19.593,31.67a1,1,0,0,0,.866,1.5h9.108a1,1,0,0,0,0-2Z" style="fill:#303135"/><path d="M37.853,21.02l1.319-4.11a1,1,0,0,0-1.9-.612l-.633,1.97-3.886-6.742a1,1,0,0,0-.866-.5h0a1,1,0,0,0-.866.5l-4.56,7.9a1,1,0,0,0,1.732,1l3.693-6.4,2.848,4.941L33.1,18.442a1,1,0,1,0-.614,1.9l4.1,1.32A1.028,1.028,0,0,0,37.853,21.02Z" style="fill:#303135"/><path d="M32,5A20,20,0,1,0,52,25,20.023,20.023,0,0,0,32,5Zm0,38A18,18,0,1,1,50,25,18.021,18.021,0,0,1,32,43Z" style="fill:#303135"/><path d="M32,0a25,25,0,0,0-9.095,48.289l8.288,11.3a1,1,0,0,0,1.614,0l8.288-11.3A25,25,0,0,0,32,0Zm8.109,46.525a1.006,1.006,0,0,0-.454.345L32,57.309,24.345,46.87a1.006,1.006,0,0,0-.454-.345,23,23,0,1,1,16.218,0Z" style="fill:#303135"/><path d="M47,62H17a1,1,0,0,0,0,2H47a1,1,0,0,0,0-2Z" style="fill:#303135"/></g></svg>