<svg xmlns="http://www.w3.org/2000/svg" viewBox="0 0 64 64"><title>Artboard-11</title><g id="Bottle_Plant" data-name="Bottle Plant"><path d="M63,37H57a1,1,0,0,0-1,1v1l-6.4-4.8A1,1,0,0,0,49,34H42a1,1,0,0,0-.937.649L40.6,35.888a7.534,7.534,0,0,0-3.53-2.22,6.609,6.609,0,0,0-3.921.04A6.336,6.336,0,0,0,28,31.04V28.987a7.854,7.854,0,0,1,1.6-3.428l1.114-1.375c1.28-1.371,3.736-1.449,6.337-1.53,3.039-.094,6.483-.2,8.968-2.429C50.52,16.189,49.1,9.1,49.034,8.8a.992.992,0,0,0-.863-.775,1.014,1.014,0,0,0-1.027.569c-.014.027-1.361,2.641-7.842,2.394h0c-8-.335-9.986,10.185-10.283,12.114l-.975,1.2A9.718,9.718,0,0,0,27,25.917,9.718,9.718,0,0,0,25.957,24.3l-.975-1.2c-.3-1.929-2.294-12.453-10.283-12.113h0c-6.488.253-7.829-2.368-7.832-2.372a1,1,0,0,0-1.9.184c-.063.3-1.486,7.394,3.018,11.43,2.485,2.227,5.929,2.335,8.968,2.429,2.6.081,5.057.159,6.337,1.53L24.4,25.559A7.854,7.854,0,0,1,26,28.987v2.082a8.43,8.43,0,0,0-5.861,3.489c-2.877-1.492-5.985-1.079-8.8,1.159l-.4-1.068A1,1,0,0,0,10,34H3a3,3,0,0,0-3,3V53a3,3,0,0,0,3,3H49a1,1,0,0,0,.6-.2L56,51v1a1,1,0,0,0,1,1h6a1,1,0,0,0,1-1V38A1,1,0,0,0,63,37ZM38.973,12.977c.082,0,.165,0,.249,0,4.211.171,6.667-.759,8.058-1.719.061,2.119-.28,5.4-2.6,7.474-1.941,1.74-4.867,1.831-7.695,1.919a30.48,30.48,0,0,0-3.564.266,10.249,10.249,0,0,1,6.953-3.075,1,1,0,1,0-.07-2A12.249,12.249,0,0,0,32.011,19.5C33.091,16.507,35.17,12.977,38.973,12.977ZM9.319,18.736C7,16.658,6.659,13.381,6.72,11.263c1.391.959,3.842,1.891,8.058,1.718,3.98-.148,6.114,3.464,7.212,6.525A12.249,12.249,0,0,0,13.7,15.847a1,1,0,1,0-.07,2,10.249,10.249,0,0,1,6.953,3.075,30.48,30.48,0,0,0-3.564-.266C14.186,20.567,11.26,20.476,9.319,18.736ZM20,36.8a1,1,0,0,0,1.522-.533C21.932,34.9,24.22,33,27,33h0c3.364,0,4.344,1.368,4.789,2.4a1,1,0,0,0,1.42.468,4.36,4.36,0,0,1,3.31-.272,5.654,5.654,0,0,1,3.241,2.528L38.307,42H13.693l-1.61-4.293C13.763,36.2,16.685,34.533,20,36.8ZM2,53V37a1,1,0,0,1,1-1H9.307c.945,2.519,1.814,4.839,2.756,7.351A1,1,0,0,0,13,44h3V54H3A1,1,0,0,1,2,53Zm16-9h7V54H18Zm9,10V44h7V54Zm21.667,0H36V44h3a1,1,0,0,0,.937-.649L42.693,36h5.974L56,41.5v7ZM62,51H58V39h4Z" style="fill:#303135"/></g></svg>