<svg xmlns="http://www.w3.org/2000/svg" viewBox="0 0 64 64"><title>Artboard-27</title><g id="No_Bottle" data-name="No Bottle"><path d="M32,0A32,32,0,1,0,64,32,32.036,32.036,0,0,0,32,0Zm0,62A30,30,0,1,1,62,32,30.034,30.034,0,0,1,32,62Z" style="fill:#303135"/><path d="M12.267,13.673a.951.951,0,0,0-.743-.292,1,1,0,0,0-.72.344A27.985,27.985,0,0,0,50.275,53.2a1,1,0,0,0,.052-1.463ZM38.425,47.087l.136.267A2.69,2.69,0,0,1,39,48.72V50a1,1,0,0,1-1,1H26a1,1,0,0,1-1-1V48.72a2.69,2.69,0,0,1,.439-1.366l.136-.267A4.754,4.754,0,0,0,26.02,45H37.979A4.771,4.771,0,0,0,38.425,47.087Zm0-4.174c-.013.026-.017.06-.029.087H25.6c-.014-.029-.018-.066-.033-.095a2.049,2.049,0,0,1,0-1.818A4.754,4.754,0,0,0,26.02,39h8.746L38.5,42.733A1.8,1.8,0,0,1,38.425,42.913ZM25.6,37c-.014-.029-.018-.066-.033-.095a2.049,2.049,0,0,1,0-1.818A4.771,4.771,0,0,0,26.021,33h2.745l4,4Zm0-6c-.012-.027-.016-.061-.029-.087l-.136-.267A2.69,2.69,0,0,1,25,29.28v-.046L26.766,31ZM32,58A25.987,25.987,0,0,1,11.628,15.862L23,27.234V29.28a4.552,4.552,0,0,0,.658,2.275l.128.253a3.212,3.212,0,0,1,0,2.377,4.045,4.045,0,0,0,0,3.623,3.212,3.212,0,0,1,0,2.377,4.045,4.045,0,0,0,0,3.623,3.21,3.21,0,0,1,0,2.384l-.128.253A4.552,4.552,0,0,0,23,48.72V50a3,3,0,0,0,3,3H38a3,3,0,0,0,3-3V48.72a4.552,4.552,0,0,0-.658-2.275l-.128-.253a3.245,3.245,0,0,1-.154-1.9l8.078,8.077A25.908,25.908,0,0,1,32,58Z" style="fill:#303135"/><path d="M32,4a27.9,27.9,0,0,0-18.275,6.8,1,1,0,0,0-.052,1.463l38.06,38.06a1,1,0,0,0,.707.293h.036a1,1,0,0,0,.72-.344A27.985,27.985,0,0,0,32,4Zm3,12H28V13h8v3Zm-5,5V18h4v3a1,1,0,0,0,.485.857l4.03,2.42A1,1,0,0,1,39,25.13v4.15a2.048,2.048,0,0,1-.214.912l-.361.721c-.014.028-.018.059-.031.087h-3.16l-7.86-7.86,2.14-1.282A1,1,0,0,0,30,21Zm8.064,12.83-.83-.83H38v.28A4.082,4.082,0,0,0,38.064,33.83ZM52.372,48.138,40.617,36.382c.012-.127.023-.254.023-.382a3.985,3.985,0,0,0-.426-1.808A2.048,2.048,0,0,1,40,33.28v-.56a2.048,2.048,0,0,1,.214-.912l.361-.721A4.067,4.067,0,0,0,41,29.28V25.13a3.01,3.01,0,0,0-1.456-2.567L36,20.434V18h1a1,1,0,0,0,1-1V12a1,1,0,0,0-1-1H27a1,1,0,0,0-1,1v5a1,1,0,0,0,1,1h1v2.434l-2.084,1.247L15.862,11.628a25.987,25.987,0,0,1,36.51,36.51Z" style="fill:#303135"/></g></svg>