<svg xmlns="http://www.w3.org/2000/svg" viewBox="0 0 64 64"><title>Artboard-8</title><g id="Shopbag"><path d="M55,18H48V6a1,1,0,0,0-.47-.848l-8-5A1.185,1.185,0,0,0,39,0H25a1.182,1.182,0,0,0-.53.152l-8,5A1,1,0,0,0,16,6V18H9a1,1,0,0,0-1,1V57a7.008,7.008,0,0,0,7,7H49a7.008,7.008,0,0,0,7-7V19A1,1,0,0,0,55,18Zm-9,1v9H40V2.8l6,3.75ZM26,10H38v8H26ZM38,8H26V2H38ZM18,6.554,24,2.8V28H18ZM54,57a5.006,5.006,0,0,1-5,5H15a5.006,5.006,0,0,1-5-5V20h6v8H15a1,1,0,0,0,0,2H27a1,1,0,0,0,0-2H26V20H38v8H37a1,1,0,0,0,0,2H49a1,1,0,0,0,0-2H48V20h6Z" style="fill:#303135"/><path d="M40,45.535a1,1,0,1,0-1.732,1l3.46,6.005a.161.161,0,0,1,0,.174.164.164,0,0,1-.152.088L36.183,52.8l1.271-1.15a1,1,0,0,0-1.342-1.483l-3.193,2.891a1.022,1.022,0,0,0-.075,1.421l2.9,3.2a1,1,0,0,0,1.483-1.344L35.835,54.8l5.74.006h0a2.175,2.175,0,0,0,1.885-3.261Z" style="fill:#303135"/><path d="M29.567,52.968H22.5a.175.175,0,0,1-.152-.262l2.694-4.669.362,1.678a1,1,0,0,0,.976.79.962.962,0,0,0,.212-.023,1,1,0,0,0,.767-1.188l-.907-4.21a1.032,1.032,0,0,0-1.194-.776l-4.219.912a1,1,0,0,0,.423,1.955l2.021-.437L20.61,51.706A2.176,2.176,0,0,0,22.5,54.968h7.072a1,1,0,0,0,0-2Z" style="fill:#303135"/><path d="M37.853,42.817l1.319-4.109a1,1,0,0,0-1.9-.612l-.633,1.969-2.868-4.976A2.153,2.153,0,0,0,31.883,34h0A2.154,2.154,0,0,0,30,35.087l-3.541,6.135a1,1,0,1,0,1.732,1l3.541-6.135a.176.176,0,0,1,.3,0l2.7,4.677L33.1,40.24a1,1,0,1,0-.613,1.9l4.1,1.319A1.033,1.033,0,0,0,37.853,42.817Z" style="fill:#303135"/></g></svg>