<svg xmlns="http://www.w3.org/2000/svg" viewBox="0 0 64 64"><title>Artboard-13</title><g id="Home_Recyle" data-name="Home Recyle"><path d="M58.725,24.873,51,20.237V8h2a1,1,0,0,0,1-1V2a1,1,0,0,0-1-1H40a1,1,0,0,0-1,1V7a1,1,0,0,0,1,1h2v6.835L32.515,9.143a1,1,0,0,0-1.03,0L5.275,24.873a1,1,0,0,0-.4,1.27l2.85,6.28a1,1,0,0,0,1.425.444L13,30.561V56H10a1,1,0,0,0-1,1v5a1,1,0,0,0,1,1H54a1,1,0,0,0,1-1V57a1,1,0,0,0-1-1H51V30.561l3.846,2.306a1,1,0,0,0,1.425-.444l2.849-6.28A1,1,0,0,0,58.725,24.873ZM41,3H52V6H41Zm8,5V19.034l-5-3V8Zm4,53H11V58H53ZM49,29.366V56H15V29.366l17-10.2Zm5.913,1.21-22.4-13.433a1,1,0,0,0-1.03,0L9.087,30.576,7.069,26.128,32,11.167,56.931,26.128Z" style="fill:#303135"/><path d="M38.636,39.168a1,1,0,0,0-.367,1.366l3.46,6.005a.161.161,0,0,1,0,.174.164.164,0,0,1-.152.088L36.183,46.8l1.271-1.15a1,1,0,0,0-1.342-1.483l-3.193,2.891a1.027,1.027,0,0,0-.075,1.421l2.9,3.2a1,1,0,0,0,1.483-1.344L35.835,48.8l5.74.006h0a2.175,2.175,0,0,0,1.885-3.261L40,39.535A1,1,0,0,0,38.636,39.168Z" style="fill:#303135"/><path d="M21.457,41.175l2.021-.437L20.61,45.706A2.176,2.176,0,0,0,22.5,48.968h7.072a1,1,0,0,0,0-2H22.5a.175.175,0,0,1-.152-.262l2.694-4.669.362,1.678a1,1,0,0,0,.976.79.962.962,0,0,0,.212-.023,1,1,0,0,0,.767-1.188l-.907-4.21a1.032,1.032,0,0,0-1.194-.776l-4.219.912a1,1,0,0,0,.423,1.955Z" style="fill:#303135"/><path d="M26.823,36.588a1,1,0,0,0,1.366-.366l3.541-6.135a.176.176,0,0,1,.3,0l2.7,4.677L33.1,34.24a1,1,0,1,0-.613,1.9l4.1,1.319a1.024,1.024,0,0,0,1.269-.646l1.319-4.109a1,1,0,0,0-1.9-.612l-.633,1.969-2.868-4.976A2.153,2.153,0,0,0,31.883,28h0A2.154,2.154,0,0,0,30,29.087l-3.541,6.135A1,1,0,0,0,26.823,36.588Z" style="fill:#303135"/></g></svg>