<svg xmlns="http://www.w3.org/2000/svg" viewBox="0 0 64 64"><title>Artboard-12</title><g id="File"><path d="M54.707,9.293l-9-9A1.089,1.089,0,0,0,45,0H10A1,1,0,0,0,9,1V63a1,1,0,0,0,1,1H54a1,1,0,0,0,1-1V10A1.092,1.092,0,0,0,54.707,9.293ZM51.586,9H46V3.414ZM11,62V2H44v8a1,1,0,0,0,1,1h8V62Z" style="fill:#303135"/><path d="M38.635,16.168a1,1,0,0,0-.366,1.366l3.46,6a.175.175,0,0,1-.152.263h0L36.183,23.8l1.271-1.15a1,1,0,0,0-1.343-1.483l-3.192,2.891a1.02,1.02,0,0,0-.074,1.421l2.9,3.2a1,1,0,1,0,1.481-1.344L35.835,25.8l5.74.006h0a2.175,2.175,0,0,0,1.885-3.261l-3.461-6A1,1,0,0,0,38.635,16.168Z" style="fill:#303135"/><path d="M21.457,18.175l2.021-.437L20.61,22.706A2.176,2.176,0,0,0,22.5,25.968h7.072a1,1,0,0,0,0-2H22.5a.175.175,0,0,1-.152-.262l2.694-4.669.362,1.678a1,1,0,0,0,.976.79.962.962,0,0,0,.212-.023,1,1,0,0,0,.767-1.188l-.907-4.21a1.031,1.031,0,0,0-1.194-.776l-4.219.912a1,1,0,0,0,.423,1.955Z" style="fill:#303135"/><path d="M26.823,13.588a1,1,0,0,0,1.366-.366L31.73,7.087a.176.176,0,0,1,.3,0l2.7,4.678L33.1,11.24a1,1,0,0,0-.612,1.9l4.1,1.319a1.025,1.025,0,0,0,1.269-.646l1.319-4.109a1,1,0,0,0-1.9-.612l-.633,1.97L33.767,6.089A2.153,2.153,0,0,0,31.883,5h0A2.154,2.154,0,0,0,30,6.087l-3.541,6.135A1,1,0,0,0,26.823,13.588Z" style="fill:#303135"/><path d="M49,32H15a1,1,0,0,0,0,2H49a1,1,0,0,0,0-2Z" style="fill:#303135"/><path d="M15,39H43a1,1,0,0,0,0-2H15a1,1,0,0,0,0,2Z" style="fill:#303135"/><path d="M15,44H43a1,1,0,0,0,0-2H15a1,1,0,0,0,0,2Z" style="fill:#303135"/><path d="M15,49H43a1,1,0,0,0,0-2H15a1,1,0,0,0,0,2Z" style="fill:#303135"/><path d="M44,53a1,1,0,0,0-1-1H15a1,1,0,0,0,0,2H43A1,1,0,0,0,44,53Z" style="fill:#303135"/><path d="M49,57H36a1,1,0,0,0,0,2H49a1,1,0,0,0,0-2Z" style="fill:#303135"/><path d="M49,37H46a1,1,0,0,0,0,2h3a1,1,0,0,0,0-2Z" style="fill:#303135"/><path d="M49,42H46a1,1,0,0,0,0,2h3a1,1,0,0,0,0-2Z" style="fill:#303135"/><path d="M49,47H46a1,1,0,0,0,0,2h3a1,1,0,0,0,0-2Z" style="fill:#303135"/><path d="M49,52H46a1,1,0,0,0,0,2h3a1,1,0,0,0,0-2Z" style="fill:#303135"/></g></svg>