<svg xmlns="http://www.w3.org/2000/svg" viewBox="0 0 64 64"><title>Artboard-36</title><g id="Flask"><path d="M33,25.941a5.154,5.154,0,0,1,1.043-2.23l.766-.946c.806-.856,2.449-.908,4.19-.962,2.166-.068,4.621-.144,6.433-1.767,3.262-2.924,2.239-8.025,2.194-8.241a.994.994,0,0,0-.853-.768,1.025,1.025,0,0,0-1.032.551c-.009.017-.9,1.656-5.172,1.5h0c-.089,0-.176-.006-.262-.006-5.511,0-6.945,7.079-7.191,8.606L33,21.821V13.573A7.722,7.722,0,0,0,37,7,7.829,7.829,0,0,0,32.447.105a1,1,0,0,0-.894,0A7.829,7.829,0,0,0,27,7a7.722,7.722,0,0,0,4,6.573v8.248l-.118-.147c-.256-1.554-1.763-8.839-7.451-8.6-4.242.159-5.154-1.466-5.157-1.466h0a1,1,0,0,0-1.9.185c-.045.216-1.068,5.317,2.194,8.241,1.812,1.623,4.267,1.7,6.433,1.767,1.741.054,3.384.106,4.19.962l.766.946A5.154,5.154,0,0,1,31,25.941V27H24a1,1,0,0,0-1,1v5a1,1,0,0,0,1,1h2v3.7a3.993,3.993,0,0,1-1.4,3.037L21.1,43.744A6,6,0,0,0,19,48.3V61a3,3,0,0,0,3,3H42a3,3,0,0,0,3-3V48.3a6,6,0,0,0-2.095-4.557L39.4,40.738A4,4,0,0,1,38,37.7V34h2a1,1,0,0,0,1-1V28a1,1,0,0,0-1-1H33Zm7.33-10.87.16,0h0a10.061,10.061,0,0,0,5.322-.968,6.039,6.039,0,0,1-1.715,4.44c-1.268,1.137-3.247,1.2-5.16,1.258-.514.016-1.03.035-1.539.072a6.818,6.818,0,0,1,3.917-1.419,1,1,0,1,0-.07-2,8.8,8.8,0,0,0-4.981,1.773C37.06,16.593,38.334,15.071,40.33,15.071ZM19.9,18.546a6.059,6.059,0,0,1-1.71-4.437,10.045,10.045,0,0,0,5.317.965h0c2.049-.085,3.384,1.469,4.213,3.148a8.809,8.809,0,0,0-4.968-1.763,1,1,0,1,0-.07,2A6.818,6.818,0,0,1,26.6,19.876c-.509-.037-1.025-.056-1.539-.072C23.15,19.744,21.171,19.683,19.9,18.546ZM22.4,45.263l3.508-3.007A6,6,0,0,0,28,37.7V34h3V51.274A15.012,15.012,0,0,1,25.99,52,14.958,14.958,0,0,1,21,51.274V48.3A3.993,3.993,0,0,1,22.4,45.263ZM42,62H22a1,1,0,0,1-1-1V53.364A17.113,17.113,0,0,0,25.99,54,17.2,17.2,0,0,0,31,53.364V59a1,1,0,0,0,2,0V52.726A14.985,14.985,0,0,1,38,52a14.985,14.985,0,0,1,5,.726V61A1,1,0,0,1,42,62ZM38.1,42.257,41.6,45.262A4,4,0,0,1,43,48.3v2.336A17.154,17.154,0,0,0,38,50a17.154,17.154,0,0,0-5,.636V34h3v3.7A6,6,0,0,0,38.1,42.257ZM39,29v3H25V29ZM29,7a5.748,5.748,0,0,1,3-4.862A5.748,5.748,0,0,1,35,7a5.514,5.514,0,0,1-2,4.129V7a1,1,0,0,0-2,0v4.129A5.514,5.514,0,0,1,29,7Z" style="fill:#303135"/></g></svg>