<svg xmlns="http://www.w3.org/2000/svg" viewBox="0 0 64 64"><title>Artboard-23</title><g id="Battery_Recycle-2" data-name="Battery Recycle"><path d="M6,29a1,1,0,0,0-1,1V50a1,1,0,0,0,1,1h8a1,1,0,0,0,1-1V40.27a1,1,0,0,0-2,0V49H7V31H8.4a1,1,0,0,0,0-2Z" style="fill:#303135"/><path d="M18,42.31a1,1,0,0,0-1,1V50a1,1,0,0,0,1,1h8a1,1,0,0,0,1-1V45.9a1,1,0,0,0-2,0V49H19V43.31A1,1,0,0,0,18,42.31Z" style="fill:#303135"/><path d="M30,44.9a1,1,0,0,0-1,1V50a1,1,0,0,0,1,1h8a1,1,0,0,0,1-1V43.31a1,1,0,0,0-2,0V49H31V45.9A1,1,0,0,0,30,44.9Z" style="fill:#303135"/><path d="M47.6,31H49V49H43V40.27a1,1,0,0,0-2,0V50a1,1,0,0,0,1,1h8a1,1,0,0,0,1-1V30a1,1,0,0,0-1-1H47.6a1,1,0,1,0,0,2Z" style="fill:#303135"/><path d="M60,31H55V30a5.006,5.006,0,0,0-5-5H48a1,1,0,0,0,0,2h2a3,3,0,0,1,3,3V50a3,3,0,0,1-3,3H6a3,3,0,0,1-3-3V30a3,3,0,0,1,3-3H8a1,1,0,0,0,0-2H6a5.006,5.006,0,0,0-5,5V50a5.006,5.006,0,0,0,5,5H50a5.006,5.006,0,0,0,5-5V49h5a3,3,0,0,0,3-3V34A3,3,0,0,0,60,31Zm1,15a1,1,0,0,1-1,1H55V33h5a1,1,0,0,1,1,1Z" style="fill:#303135"/><path d="M33.123,24.829a1,1,0,0,0-.367,1.365l2.662,4.62-3.573,0,.594-.538A1,1,0,1,0,31.1,28.79l-2.516,2.277a1.021,1.021,0,0,0-.074,1.42l2.285,2.52a1,1,0,1,0,1.481-1.344L31.5,32.81l4.043,0h0a1.924,1.924,0,0,0,1.669-2.887L34.488,25.2A1,1,0,0,0,33.123,24.829Z" style="fill:#303135"/><path d="M19.737,26.8l1.125-.243-2.02,3.5a1.926,1.926,0,0,0,1.668,2.889h5.573a1,1,0,1,0,0-2H20.638l1.784-3.091.169.785a1,1,0,0,0,.977.789.953.953,0,0,0,.211-.023,1,1,0,0,0,.767-1.188L23.832,24.9a1.03,1.03,0,0,0-1.193-.773l-3.325.719a1,1,0,0,0,.423,1.955Z" style="fill:#303135"/><path d="M23.814,23.162a1,1,0,0,0,1.367-.366l2.726-4.722,1.786,3.1-.763-.246a1,1,0,0,0-.614,1.9l3.231,1.04a1.029,1.029,0,0,0,1.266-.646l1.04-3.239a1,1,0,0,0-1.9-.611l-.352,1.1-2.021-3.506A1.906,1.906,0,0,0,27.909,16h0a1.906,1.906,0,0,0-1.668.963L23.448,21.8A1,1,0,0,0,23.814,23.162Z" style="fill:#303135"/><path d="M28,43A17,17,0,1,0,11,26,17.019,17.019,0,0,0,28,43Zm0-32A15,15,0,1,1,13,26,15.017,15.017,0,0,1,28,11Z" style="fill:#303135"/></g></svg>