<svg xmlns="http://www.w3.org/2000/svg" viewBox="0 0 64 64"><title>Artboard-14</title><g id="REcycle"><path d="M61.478,43.556,52.689,28.343a1,1,0,0,0-1.366-.366l-4.967,2.867a1,1,0,0,0-.366,1.366l8.776,15.21a1.032,1.032,0,0,1,.16.524,1.1,1.1,0,0,1-1.08,1.07H42.1V43.783a1,1,0,0,0-1.707-.707l-9.109,9.109a1,1,0,0,0,0,1.414L40.4,62.707A1,1,0,0,0,42.1,62V56.759H53.846a8.83,8.83,0,0,0,8.825-8.815A8.637,8.637,0,0,0,61.478,43.556Zm-7.632,11.2H41.1a1,1,0,0,0-1,1v3.827l-6.695-6.694L40.1,46.2v3.816a1,1,0,0,0,1,1H53.846a3.082,3.082,0,0,0,3.08-3.07,3,3,0,0,0-.426-1.52L48.223,32.077l3.234-1.869,8.29,14.35a6.667,6.667,0,0,1,.924,3.386A6.835,6.835,0,0,1,53.846,54.759Z" style="fill:#303135"/><path d="M27.229,49.255,9.67,49.25a1.019,1.019,0,0,1-.533-.124,1.208,1.208,0,0,1-.477-.595.981.981,0,0,1,.09-.875l5.871-10.171,4.53,2.616a1,1,0,0,0,1.466-1.125L17.283,26.534a1,1,0,0,0-1.224-.707L3.616,29.161a1,1,0,0,0-.241,1.832l4.539,2.62L2.042,43.783A8.831,8.831,0,0,0,5.264,55.834a8.622,8.622,0,0,0,4.369,1.16h.028l17.568,0a1,1,0,0,0,1-1V50.255A1,1,0,0,0,27.229,49.255Zm-1,5.736-16.571,0H9.636A6.655,6.655,0,0,1,6.264,54.1a6.837,6.837,0,0,1-2.49-9.319l6.372-11.036A1,1,0,0,0,9.78,32.38L6.466,30.467l9.144-2.45,2.451,9.145-3.306-1.909a1,1,0,0,0-1.366.366L7.018,46.656a2.989,2.989,0,0,0-.234,2.57,3.216,3.216,0,0,0,1.352,1.631,2.976,2.976,0,0,0,1.53.393l16.563,0Z" style="fill:#303135"/><path d="M31.761,8.766a.977.977,0,0,1,.713.515l5.872,10.17-4.53,2.615a1,1,0,0,0,.242,1.832L46.5,27.232a.974.974,0,0,0,.26.035,1,1,0,0,0,.965-.742l3.334-12.442a1,1,0,0,0-1.466-1.125l-4.538,2.621L39.182,5.408a8.711,8.711,0,0,0-5.5-4.15,8.924,8.924,0,0,0-6.547.915,8.633,8.633,0,0,0-3.2,3.228L15.149,20.618a1,1,0,0,0,.367,1.366l4.967,2.868a1,1,0,0,0,1.367-.367l8.783-15.2a1.023,1.023,0,0,1,.374-.4A1.217,1.217,0,0,1,31.761,8.766ZM30.006,7.149a3.015,3.015,0,0,0-1.1,1.128L20.617,22.62l-3.235-1.869L25.664,6.4a6.667,6.667,0,0,1,2.471-2.493A6.924,6.924,0,0,1,33.2,3.2a6.725,6.725,0,0,1,4.245,3.208l6.372,11.037a1,1,0,0,0,1.366.366L48.5,15.9l-2.45,9.145-9.144-2.45,3.305-1.908a1,1,0,0,0,.366-1.367L34.206,8.281A2.987,2.987,0,0,0,32.1,6.794,3.22,3.22,0,0,0,30.006,7.149Z" style="fill:#303135"/></g></svg>