<svg xmlns="http://www.w3.org/2000/svg" viewBox="0 0 64 64"><title>Artboard-26</title><g id="Hand_Recycle" data-name="Hand Recycle"><path d="M40.368,19.6l3.073,5.321a.337.337,0,0,1,.058.17.324.324,0,0,1-.318.307H38.12V22.452a1,1,0,0,0-1.708-.706l-5.759,5.759a1,1,0,0,0,0,1.416l5.762,5.762a1,1,0,0,0,1.707-.707V31.031h5.061a5.954,5.954,0,0,0,5.952-5.942,5.817,5.817,0,0,0-.8-2.958l-3.095-5.352a1,1,0,0,0-1.367-.364l-3.136,1.817A1,1,0,0,0,40.368,19.6Zm3.637-.951L46.6,23.135a3.831,3.831,0,0,1,.533,1.954,3.956,3.956,0,0,1-3.952,3.942H37.12a1,1,0,0,0-1,1v1.531l-3.346-3.346,3.346-3.345V26.4a1,1,0,0,0,1,1h6.061a2.3,2.3,0,0,0,2-3.457L42.6,19.462Z" style="fill:#303135"/><path d="M15.1,27.1a6.024,6.024,0,0,0,2.74,3.514h0a5.8,5.8,0,0,0,2.942.782h.02l6.183,0a1,1,0,0,0,1-1l-.007-3.624a1,1,0,0,0-1-1H20.834a.322.322,0,0,1-.177-.036.393.393,0,0,1-.137-.183.255.255,0,0,1,.031-.244l2.531-4.383L25.631,22.4A1,1,0,0,0,27.1,21.271L24.989,13.4a1,1,0,0,0-1.226-.71l-7.87,2.11a1,1,0,0,0-.241,1.832l2.55,1.471L15.671,22.49A5.881,5.881,0,0,0,15.1,27.1Zm2.3-3.613,3.031-5.249a1,1,0,0,0-.366-1.366l-1.325-.765,4.57-1.224,1.224,4.569-1.322-.763a1,1,0,0,0-1.366.367l-3.03,5.249a2.241,2.241,0,0,0-.239,1.736,2.377,2.377,0,0,0,1.076,1.423,2.319,2.319,0,0,0,1.155.3h5.17l0,1.625-5.184,0a3.9,3.9,0,0,1-3.778-2.852A3.9,3.9,0,0,1,17.4,23.49Z" style="fill:#303135"/><path d="M23.821,9.65l3.142,1.807a1,1,0,0,0,1.365-.367L31.4,5.768a.331.331,0,0,1,.118-.135.4.4,0,0,1,.23-.029.259.259,0,0,1,.2.15l2.53,4.383-2.549,1.471a1,1,0,0,0,.242,1.832l7.866,2.109a1,1,0,0,0,1.228-.706l2.109-7.87A1,1,0,0,0,41.9,5.848L39.354,7.319,36.823,2.937A5.954,5.954,0,0,0,28.7.753a5.8,5.8,0,0,0-2.159,2.175L23.454,8.284a1,1,0,0,0,.367,1.366Zm4.454-5.726A3.837,3.837,0,0,1,29.7,2.485a3.955,3.955,0,0,1,5.39,1.452l3.031,5.249a1,1,0,0,0,1.366.366l1.325-.765-1.225,4.569-4.569-1.224,1.321-.763A1,1,0,0,0,36.706,10L33.675,4.754a2.251,2.251,0,0,0-1.589-1.12,2.392,2.392,0,0,0-1.568.266,2.333,2.333,0,0,0-.839.847L27.094,9.226l-1.408-.811Z" style="fill:#303135"/><path d="M61.671,27.328a4.543,4.543,0,0,0-6.414,0l-12.75,12.75A4,4,0,0,0,39,38H14a1,1,0,0,0-.707.293L10,41.586,7.707,39.293a1,1,0,0,0-1.414,0l-4,4a1,1,0,0,0,0,1.414L3.586,46,1.293,48.293a1,1,0,0,0,1.414,1.414L5,47.414,17.586,60l-2.293,2.293a1,1,0,1,0,1.414,1.414L19,61.414l1.293,1.293a1,1,0,0,0,1.414,0l4-4a1,1,0,0,0,0-1.414L23.414,55l2-2H42a1,1,0,0,0,.707-.293L61.671,33.742a4.534,4.534,0,0,0,0-6.414ZM21,60.586,4.414,44,7,41.414,23.586,58ZM60.257,32.328,41.586,51H25a1,1,0,0,0-.707.293L22,53.586,11.414,43l3-3H39a2,2,0,0,1,2,2v0a2,2,0,0,1-2,2H29a1,1,0,0,0,0,2H39a4.006,4.006,0,0,0,3.976-3.562l13.7-13.7a2.536,2.536,0,1,1,3.586,3.586Z" style="fill:#303135"/></g></svg>