<svg xmlns="http://www.w3.org/2000/svg" viewBox="0 0 64 64"><title>Artboard-37</title><g id="Shield"><path d="M57,10A34.586,34.586,0,0,1,32.743.33a1.034,1.034,0,0,0-1.486,0A34.586,34.586,0,0,1,7,10a1,1,0,0,0-1,1V43.139a11.01,11.01,0,0,0,5.625,9.6L31.511,63.872a1,1,0,0,0,.978,0L52.375,52.736A11.01,11.01,0,0,0,58,43.139V11A1,1,0,0,0,57,10ZM56,43.139a9.011,9.011,0,0,1-4.6,7.853L32,61.854,12.6,50.992A9.011,9.011,0,0,1,8,43.139V11.987A36.433,36.433,0,0,0,32,2.423a36.433,36.433,0,0,0,24,9.564Z" style="fill:#303135"/><path d="M31.376,5.6A39.2,39.2,0,0,1,10.9,13.814a1,1,0,0,0-.9,1V43.139a7.007,7.007,0,0,0,3.579,6.107L31.511,59.288a1,1,0,0,0,.978,0L50.42,49.247A7.007,7.007,0,0,0,54,43.139V14.81a1,1,0,0,0-.9-1A39.2,39.2,0,0,1,32.624,5.6,1,1,0,0,0,31.376,5.6ZM52,15.708V43.139A5,5,0,0,1,49.443,47.5L32,57.27,14.557,47.5A5.006,5.006,0,0,1,12,43.139V15.708A41.3,41.3,0,0,0,32,7.649,41.3,41.3,0,0,0,52,15.708Z" style="fill:#303135"/><path d="M39.068,31.838A1,1,0,0,0,38.7,33.2l3.671,6.37a.246.246,0,0,1-.214.369h0l-5.878-.006,1.464-1.327A1,1,0,1,0,36.4,37.127l-3.386,3.066a1.021,1.021,0,0,0-.074,1.422l3.075,3.392A1,1,0,1,0,37.5,43.663l-1.567-1.728,6.225.007h0A2.246,2.246,0,0,0,44.1,38.574l-3.67-6.369A1,1,0,0,0,39.068,31.838Z" style="fill:#303135"/><path d="M29.42,40.119h-7.5a.247.247,0,0,1-.213-.37l2.937-5.087.417,1.934a1,1,0,0,0,.976.789.962.962,0,0,0,.212-.023,1,1,0,0,0,.767-1.188l-.962-4.466a1.034,1.034,0,0,0-1.195-.775l-4.474.966a1,1,0,0,0,.423,1.955l2.276-.491-3.109,5.386a2.247,2.247,0,0,0,1.945,3.37h7.5a1,1,0,0,0,0-2Z" style="fill:#303135"/><path d="M31.875,20a2.225,2.225,0,0,0-1.946,1.123l-3.756,6.506a1,1,0,1,0,1.732,1l3.756-6.506a.248.248,0,0,1,.428,0l2.939,5.1-1.883-.606a1,1,0,0,0-.612,1.905l4.348,1.4a1.034,1.034,0,0,0,1.269-.647l1.4-4.358a1,1,0,1,0-1.9-.611l-.712,2.22-3.112-5.4A2.222,2.222,0,0,0,31.876,20Z" style="fill:#303135"/></g></svg>