<svg xmlns="http://www.w3.org/2000/svg" viewBox="0 0 64 64"><title>Artboard-28</title><g id="Paper_Bag" data-name="Paper Bag"><path d="M48.649,31.539a1,1,0,1,0-1.732,1l3.775,6.55a.283.283,0,0,1-.244.424h0l-6.12-.008,1.562-1.413a1,1,0,0,0-1.342-1.483l-3.484,3.154a1.024,1.024,0,0,0-.075,1.423l3.163,3.488a1,1,0,0,0,1.483-1.344L43.978,41.5l6.467.008h0a2.283,2.283,0,0,0,1.978-3.422Z" style="fill:#303135"/><path d="M37.347,39.692H29.63a.282.282,0,0,1-.244-.422l3.058-5.3.444,2.062a1,1,0,0,0,.976.789,1.025,1.025,0,0,0,.212-.022,1,1,0,0,0,.767-1.189l-.989-4.592a1.036,1.036,0,0,0-1.2-.777l-4.6,1a1,1,0,0,0,.422,1.955l2.405-.519-3.23,5.6a2.282,2.282,0,0,0,1.976,3.422h7.717a1,1,0,0,0,0-2Z" style="fill:#303135"/><path d="M46.3,28.5l1.439-4.483a1,1,0,1,0-1.9-.612l-.753,2.344-3.231-5.606A2.258,2.258,0,0,0,39.873,19h0A2.259,2.259,0,0,0,37.9,20.141l-3.864,6.692a1,1,0,0,0,1.733,1l3.862-6.691A.27.27,0,0,1,39.871,21h0a.268.268,0,0,1,.244.141l3.06,5.308L41.169,25.8a1,1,0,1,0-.613,1.9l4.472,1.439A1.027,1.027,0,0,0,46.3,28.5Z" style="fill:#303135"/><path d="M63,6a8.3,8.3,0,0,1-4.02-.911,11.309,11.309,0,0,0-9.684,0A8.31,8.31,0,0,1,45.276,6a8.277,8.277,0,0,1-4.015-.911A10.3,10.3,0,0,0,36.421,4,10.3,10.3,0,0,0,31.58,5.089,8.29,8.29,0,0,1,27.562,6a8.278,8.278,0,0,1-4.016-.911A10.3,10.3,0,0,0,18.707,4a10.3,10.3,0,0,0-4.839,1.089A8.277,8.277,0,0,1,9.853,6a8.28,8.28,0,0,1-4.015-.911A10.292,10.292,0,0,0,1,4,1,1,0,0,0,0,5V53a7.008,7.008,0,0,0,7,7H57a7.009,7.009,0,0,0,7-7V7A1,1,0,0,0,63,6ZM7,58a5.006,5.006,0,0,1-5-5V6.04a8.238,8.238,0,0,1,3.015.871A10.3,10.3,0,0,0,9.853,8a10.292,10.292,0,0,0,4.838-1.089A12.65,12.65,0,0,1,16,6.381V53a6.973,6.973,0,0,0,2.111,5Zm55-5a5.006,5.006,0,0,1-5,5H23a5.006,5.006,0,0,1-5-5V6.02c.22-.013.455-.02.707-.02a8.284,8.284,0,0,1,4.016.911A10.3,10.3,0,0,0,27.562,8,10.31,10.31,0,0,0,32.4,6.911,8.3,8.3,0,0,1,36.421,6a8.284,8.284,0,0,1,4.016.911A10.3,10.3,0,0,0,45.276,8a10.308,10.308,0,0,0,4.842-1.089,9.325,9.325,0,0,1,8.04,0A10.19,10.19,0,0,0,62,7.965Z" style="fill:#303135"/></g></svg>