<svg xmlns="http://www.w3.org/2000/svg" viewBox="0 0 64 64"><title>Artboard-10</title><g id="Hand_Earth" data-name="Hand Earth"><path d="M62.672,25.329a4.534,4.534,0,0,0-6.414,0l-1.13,1.13A18.135,18.135,0,0,0,44.25,15.141c-.009-.005-.013-.014-.022-.019a.985.985,0,0,0-.113-.036,17.872,17.872,0,0,0-4.561-1.018,5.723,5.723,0,0,1,.575-.881l.8-1c.845-.9,2.446-.923,4.3-.948,2.215-.029,4.726-.062,6.606-1.755,3.359-3.025,2.43-8.432,2.389-8.66a.992.992,0,0,0-.847-.8,1.027,1.027,0,0,0-1.044.551c-.009.018-.952,1.786-5.323,1.516-5.843-.38-7.494,7.4-7.773,9.006l-.671.835a7.73,7.73,0,0,0-.569.828,7.62,7.62,0,0,0-.57-.83l-.671-.833c-.281-1.609-1.94-9.371-7.772-9.006C24.7,2.354,23.712.663,23.666.581a.991.991,0,0,0-1.02-.575,1,1,0,0,0-.873.817c-.041.228-.97,5.635,2.389,8.66,1.88,1.693,4.391,1.726,6.606,1.755,1.852.025,3.453.047,4.3.948l.8,1a5.671,5.671,0,0,1,.582.892A18.019,18.019,0,0,0,20.443,36H15a1,1,0,0,0-.707.293L11,39.586,8.707,37.293a1,1,0,0,0-1.414,0l-5,5a1,1,0,0,0,0,1.414L3.586,45,.293,48.293a1,1,0,0,0,1.414,1.414L5,46.414,17.586,59l-3.293,3.293a1,1,0,1,0,1.414,1.414L19,60.414l1.293,1.293a1,1,0,0,0,1.414,0l5-5a1,1,0,0,0,0-1.414L24.414,53l2-2H43a1,1,0,0,0,.707-.293L62.672,31.743A4.543,4.543,0,0,0,62.672,25.329ZM43.584,31.174a5.882,5.882,0,0,1-.088-2.81c.269-.785,1.482-1.04,3.445-1.366a12.785,12.785,0,0,0,5.5-1.859,15.616,15.616,0,0,1,1.062,2.94l-10,10a4.019,4.019,0,0,0-.733-.946C44.263,35.021,43.891,32.911,43.584,31.174ZM38,16a15.787,15.787,0,0,1,4.264.593l-4.147,7.45-8.19-1.221-2.089-3.171A15.927,15.927,0,0,1,38,16ZM46.654,4.083c.077,0,.158,0,.238.007a9.942,9.942,0,0,0,5.473-.93A6.766,6.766,0,0,1,50.5,8c-1.321,1.189-3.341,1.216-5.294,1.241-.583.008-1.17.017-1.746.056A6.809,6.809,0,0,1,47.668,7.72,1,1,0,0,0,48.65,6.7a1.013,1.013,0,0,0-1.017-.983A8.8,8.8,0,0,0,42.4,7.584C43.234,5.791,44.572,4.083,46.654,4.083ZM25.5,8A6.766,6.766,0,0,1,23.635,3.16a9.957,9.957,0,0,0,5.473.93c2.2-.128,3.608,1.63,4.477,3.484A8.8,8.8,0,0,0,28.367,5.72,1.025,1.025,0,0,0,27.35,6.7a1,1,0,0,0,.982,1.017A6.81,6.81,0,0,1,32.54,9.294c-.576-.039-1.164-.048-1.746-.056C28.841,9.213,26.821,9.186,25.5,8Zm.865,13.054L28.5,24.3a1,1,0,0,0,.687.439l9.318,1.39a1.05,1.05,0,0,0,.147.011,1,1,0,0,0,.874-.514l4.649-8.353a16.2,16.2,0,0,1,7.3,6.12,10.335,10.335,0,0,1-4.859,1.637c-2.131.353-4.335.72-5.01,2.69a7.486,7.486,0,0,0,.01,3.807c.3,1.664.539,3.122-.6,4.613A3.98,3.98,0,0,0,40,36H33.784c-1.374-2.971-3.677-3.841-5.551-4.548-1.468-.555-2.392-.943-2.854-1.891a42.636,42.636,0,0,1-1.849-4.343A16.019,16.019,0,0,1,26.365,21.051ZM22,32a15.921,15.921,0,0,1,.5-3.917c.3.7.653,1.489,1.076,2.355.833,1.71,2.415,2.307,3.946,2.885A7.252,7.252,0,0,1,31.486,36H22.51A16.18,16.18,0,0,1,22,32ZM21,59.586,4.414,43,8,39.414,24.586,56ZM61.258,30.329,42.586,49H26a1,1,0,0,0-.707.293L23,51.586,12.414,41l3-3H40a2,2,0,0,1,2,2v0a2,2,0,0,1-2,2H30a1,1,0,0,0,0,2H40a4.007,4.007,0,0,0,3.977-3.562l13.7-13.7a2.6,2.6,0,0,1,3.586,0A2.54,2.54,0,0,1,61.258,30.329Z" style="fill:#303135"/></g></svg>