<svg xmlns="http://www.w3.org/2000/svg" viewBox="0 0 64 64"><title>Artboard-40</title><g id="Book"><path d="M45,44a1,1,0,0,0-1,1v3H12V2H44V5a1,1,0,0,0,2,0V1a1,1,0,0,0-1-1H7A5.006,5.006,0,0,0,2,5V53a5.006,5.006,0,0,0,5,5H20a1,1,0,0,0,0-2H7a3,3,0,0,1,0-6H44v2H7a1,1,0,0,0,0,2H22v9a1,1,0,0,0,1.6.8L27,61.25l3.4,2.55a1,1,0,0,0,.6.2,1,1,0,0,0,1-1V54H44v2H34a1,1,0,0,0,0,2H45a1,1,0,0,0,1-1V45A1,1,0,0,0,45,44ZM4,49V5A3,3,0,0,1,7,2h3V48H7A5.255,5.255,0,0,0,4,49ZM30,61l-2.4-1.8a1,1,0,0,0-1.2,0L24,61V54h6Z" style="fill:#303135"/><path d="M45,8A17,17,0,1,0,62,25,17.019,17.019,0,0,0,45,8Zm0,32A15,15,0,1,1,60,25,15.017,15.017,0,0,1,45,40Z" style="fill:#303135"/><path d="M51.488,24.2a1,1,0,1,0-1.732,1l2.662,4.62-3.573,0,.594-.538A1,1,0,1,0,48.1,27.79l-2.516,2.277a1.021,1.021,0,0,0-.074,1.42l2.284,2.52a1,1,0,1,0,1.482-1.344L48.5,31.81l4.044,0h0a1.924,1.924,0,0,0,1.669-2.887Z" style="fill:#303135"/><path d="M43.083,29.946H37.638l1.785-3.091.169.785a1,1,0,0,0,.976.789.962.962,0,0,0,.212-.023,1,1,0,0,0,.767-1.188L40.832,23.9a1.033,1.033,0,0,0-1.192-.773l-3.325.719a1,1,0,0,0,.422,1.955l1.125-.243-2.02,3.5a1.926,1.926,0,0,0,1.668,2.889h5.573a1,1,0,0,0,0-2Z" style="fill:#303135"/><path d="M48.547,22.871a1.022,1.022,0,0,0,1.266-.646l1.041-3.239a1,1,0,0,0-1.905-.611l-.352,1.1-2.021-3.508A1.9,1.9,0,0,0,44.908,15h0a1.908,1.908,0,0,0-1.668.963L40.448,20.8a1,1,0,0,0,1.733,1l2.726-4.722,1.786,3.1-.763-.246a1,1,0,1,0-.614,1.9Z" style="fill:#303135"/><path d="M41,6a1,1,0,0,0,0-2H15a1,1,0,0,0-1,1V15a1,1,0,0,0,1,1H27.69a1,1,0,0,0,0-2H16V6Z" style="fill:#303135"/></g></svg>