<svg xmlns="http://www.w3.org/2000/svg" viewBox="0 0 64 64"><title>Artboard-4</title><g id="Lamp"><path d="M26,6a1,1,0,0,0,1-1V1a1,1,0,0,0-2,0V5A1,1,0,0,0,26,6Z" style="fill:#303135"/><path d="M14.634,8.313a1,1,0,1,0,1.732-1l-2-3.464a1,1,0,0,0-1.732,1Z" style="fill:#303135"/><path d="M3.85,14.366l3.463,2a1,1,0,1,0,1-1.732l-3.463-2a1,1,0,1,0-1,1.732Z" style="fill:#303135"/><path d="M6,26a1,1,0,0,0-1-1H1a1,1,0,0,0,0,2H5A1,1,0,0,0,6,26Z" style="fill:#303135"/><path d="M7.313,35.634l-3.463,2a1,1,0,1,0,1,1.732l3.463-2a1,1,0,1,0-1-1.732Z" style="fill:#303135"/><path d="M36,8.68a1,1,0,0,0,1.366-.367l2-3.464a1,1,0,0,0-1.732-1l-2,3.464A1,1,0,0,0,36,8.68Z" style="fill:#303135"/><path d="M44.187,16.5a1,1,0,0,0,.5-.134l3.463-2a1,1,0,1,0-1-1.732l-3.463,2a1,1,0,0,0,.5,1.866Z" style="fill:#303135"/><path d="M46,26a1,1,0,0,0,1,1h4a1,1,0,0,0,0-2H47A1,1,0,0,0,46,26Z" style="fill:#303135"/><path d="M44.687,35.634a1,1,0,1,0-1,1.732l3.463,2a1,1,0,1,0,1-1.732Z" style="fill:#303135"/><path d="M63,42H60V38a1,1,0,0,0-2,0v4H56V38a1,1,0,0,0-2,0v4H51a1,1,0,0,0,0,2h1v4a5.009,5.009,0,0,0,4,4.9V59a3,3,0,0,1-3,3H30a3,3,0,0,1-3-3V54.92A7,7,0,0,0,32.92,49H35a1,1,0,0,0,1-1V45h2a1,1,0,0,0,0-2H36V40.947a18,18,0,1,0-20,0V43H14a1,1,0,0,0,0,2h2v3a1,1,0,0,0,1,1h2.08A7,7,0,0,0,25,54.92V59a5.006,5.006,0,0,0,5,5H53a5.006,5.006,0,0,0,5-5V52.9A5.009,5.009,0,0,0,62,48V44h1a1,1,0,0,0,0-2ZM17.53,39.556a16,16,0,1,1,16.94,0A1,1,0,0,0,34,40.4V43H27V36.565a12.318,12.318,0,0,0-.514-21.439c-.02-.011-.043-.015-.064-.025s-.051-.022-.078-.032a.993.993,0,0,0-.688,0c-.027.01-.053.02-.078.032s-.044.014-.064.025A12.318,12.318,0,0,0,25,36.565V43H18V40.4A1,1,0,0,0,17.53,39.556Zm11.925-18.9L27,22.457v-4.58A10.75,10.75,0,0,1,29.455,20.654Zm-7.8,1.827L25,24.939V28.5l-3.972-2.917A10.1,10.1,0,0,1,21.653,22.481Zm9.319,3.1L27,28.5V24.938l3.347-2.458A10.107,10.107,0,0,1,30.972,25.579ZM27,30.978l3.729-2.738A10.534,10.534,0,0,1,27,34.123Zm-2-8.521-2.455-1.8A10.7,10.7,0,0,1,25,17.877Zm0,8.521v3.145a10.534,10.534,0,0,1-3.729-5.883ZM18,45H34v2H18Zm3.1,4h9.8a5,5,0,0,1-9.8,0ZM60,48a3,3,0,0,1-6,0V44h6Z" style="fill:#303135"/></g></svg>