<svg xmlns="http://www.w3.org/2000/svg" viewBox="0 0 64 64"><title>Artboard-38</title><g id="Head_Recycle" data-name="Head Recycle"><path d="M61.948,24.344A26,26,0,0,0,10,25.672L2.191,36.412A1,1,0,0,0,3,38h7v6a8.009,8.009,0,0,0,8,8h1V63a1,1,0,0,0,1,1,1.048,1.048,0,0,0,.208-.021l33-7A1,1,0,0,0,54,56V44.726A26.124,26.124,0,0,0,61.948,24.344ZM52,55.189,21,61.766V52h6a1,1,0,0,0,0-2H18a6.006,6.006,0,0,1-6-6V37a1,1,0,0,0-1-1H4.964l6.845-9.412A1,1,0,0,0,12,26a24,24,0,0,1,47.952-1.533A24.1,24.1,0,0,1,45.493,48.05a1,1,0,0,0,.791,1.836A25.8,25.8,0,0,0,52,46.47Z" style="fill:#303135"/><path d="M53,26A17,17,0,1,0,36,43,17.019,17.019,0,0,0,53,26ZM36,41A15,15,0,1,1,51,26,15.017,15.017,0,0,1,36,41Z" style="fill:#303135"/><path d="M42.488,25.2a1,1,0,1,0-1.732,1l2.662,4.62-3.573,0,.594-.538A1,1,0,1,0,39.1,28.79l-2.516,2.277a1.021,1.021,0,0,0-.074,1.42l2.284,2.52a1,1,0,1,0,1.482-1.344L39.5,32.81l4.044,0h0a1.924,1.924,0,0,0,1.669-2.887Z" style="fill:#303135"/><path d="M34.083,30.946H28.638l1.784-3.091.169.785a1,1,0,0,0,.977.789.953.953,0,0,0,.211-.023,1,1,0,0,0,.767-1.188L31.832,24.9a1.03,1.03,0,0,0-1.193-.773l-3.325.719a1,1,0,0,0,.423,1.955l1.125-.243-2.02,3.5a1.926,1.926,0,0,0,1.668,2.889h5.573a1,1,0,0,0,0-2Z" style="fill:#303135"/><path d="M39.547,23.871a1.029,1.029,0,0,0,1.266-.646l1.041-3.239a1,1,0,0,0-1.905-.611l-.352,1.1-2.021-3.508A1.9,1.9,0,0,0,35.908,16h0a1.908,1.908,0,0,0-1.668.963L31.448,21.8a1,1,0,0,0,1.733,1l2.726-4.722,1.786,3.1-.763-.246a1,1,0,1,0-.614,1.9Z" style="fill:#303135"/></g></svg>