<svg xmlns="http://www.w3.org/2000/svg" viewBox="0 0 64 64"><title>Artboard-18</title><g id="Recycle_Water" data-name="Recycle Water"><path d="M63.935,34.287a1,1,0,0,0-.89-.643l-3.21-.143a24.469,24.469,0,0,0-8.964-18.616l-.669-.539A1,1,0,0,0,48.648,15.5l.363.887a44.531,44.531,0,0,1,3.273,16.774l-3.138-.141a1.013,1.013,0,0,0-.949.571,1,1,0,0,0,.157,1.094l6.768,7.579a1,1,0,0,0,.712.334h.034a.994.994,0,0,0,.7-.284L63.7,35.359A1,1,0,0,0,63.935,34.287Zm-8.017,5.868-4.49-5.028,1.8.081a.978.978,0,0,0,.726-.268,1,1,0,0,0,.319-.707,46.628,46.628,0,0,0-2.3-15.573A22.615,22.615,0,0,1,57.83,34.432a1,1,0,0,0,.955,1.024l1.864.083Z" style="fill:#303135"/><path d="M33.164,11.716l-.141,3.138a1,1,0,0,0,1.665.792l7.58-6.768a1,1,0,0,0,.049-1.444L35.359.3a1,1,0,0,0-1.714.653L33.5,4.165a24.469,24.469,0,0,0-18.615,8.964l-.539.668A1,1,0,0,0,15.5,15.351l.887-.362A44.542,44.542,0,0,1,33.1,11.716Zm1.268-5.547h.025a1,1,0,0,0,1-.955l.083-1.865,4.617,4.732-5.028,4.49.08-1.8a1,1,0,0,0-.974-1.044c-.376-.01-.752-.014-1.129-.014a46.651,46.651,0,0,0-14.445,2.31A22.68,22.68,0,0,1,34.432,6.169Z" style="fill:#303135"/><path d="M8.878,21.733a1,1,0,0,0-1.444-.05L.3,28.641a1,1,0,0,0,.654,1.715l3.209.143a24.469,24.469,0,0,0,8.964,18.615l.668.539A1,1,0,0,0,15.351,48.5l-.362-.887a44.531,44.531,0,0,1-3.273-16.774l3.139.141a1,1,0,0,0,.791-1.665Zm1.9,7.059a1.021,1.021,0,0,0-.727.268,1,1,0,0,0-.317.707,46.58,46.58,0,0,0,2.3,15.573A22.626,22.626,0,0,1,6.169,29.568a1,1,0,0,0-.955-1.024l-1.863-.083,4.731-4.616,4.49,5.028Z" style="fill:#303135"/><path d="M48.5,48.649l-.887.362a44.93,44.93,0,0,1-16.774,3.273l.141-3.139a1,1,0,0,0-1.665-.791l-7.579,6.768a1,1,0,0,0-.05,1.444L28.641,63.7a1,1,0,0,0,1.715-.654l.143-3.209a24.477,24.477,0,0,0,18.615-8.964l.539-.668A1,1,0,0,0,48.5,48.649ZM29.568,57.831a.977.977,0,0,0-1.024.955l-.083,1.863-4.616-4.731,5.028-4.49-.081,1.8a1,1,0,0,0,.975,1.044,46.355,46.355,0,0,0,15.573-2.3A22.65,22.65,0,0,1,29.568,57.831Z" style="fill:#303135"/><path d="M32,46A11.013,11.013,0,0,0,43,35c0-8.384-9.952-16.442-10.375-16.781a1,1,0,0,0-1.25,0C30.952,18.558,21,26.616,21,35A11.013,11.013,0,0,0,32,46Zm0-25.687C34.135,22.186,41,28.7,41,35a9,9,0,0,1-18,0C23,28.7,29.865,22.186,32,20.313Z" style="fill:#303135"/><path d="M32,43a1,1,0,0,0,0-2,6.006,6.006,0,0,1-6-6,1,1,0,0,0-2,0A8.009,8.009,0,0,0,32,43Z" style="fill:#303135"/></g></svg>