<svg xmlns="http://www.w3.org/2000/svg" viewBox="0 0 64 64"><title>Artboard-3</title><g id="Recycle-2" data-name="Recycle"><path d="M29.2,30.769l.762.941a5.179,5.179,0,0,1,1.05,2.256c0,.012-.007.022-.007.034v1.069A8.008,8.008,0,0,0,24,43a1,1,0,0,0,1,1H39a1,1,0,0,0,1-1,8.008,8.008,0,0,0-7-7.931V34c0-.012-.006-.022-.007-.034a5.168,5.168,0,0,1,1.05-2.256l.765-.944c.807-.857,2.451-.909,4.191-.963,2.166-.068,4.621-.144,6.434-1.767,3.261-2.925,2.239-8.025,2.193-8.241a.991.991,0,0,0-.853-.768,1.032,1.032,0,0,0-1.032.551c-.008.017-.939,1.668-5.171,1.5-4.418-.2-6.76,4.293-7.453,8.6l-.629.776a7,7,0,0,0-.488.687,7.186,7.186,0,0,0-.489-.687l-.628-.775c-.7-4.336-3.044-8.8-7.452-8.6h0c-4.229.171-5.153-1.465-5.156-1.465h0a1,1,0,0,0-1.9.184c-.045.216-1.068,5.316,2.194,8.241,1.811,1.623,4.266,1.7,6.432,1.767C26.744,29.857,28.391,29.909,29.2,30.769ZM37.917,42H26.083a6,6,0,0,1,11.834,0ZM40.49,23.074a10.018,10.018,0,0,0,5.317-.965A6.063,6.063,0,0,1,44.1,26.546c-1.269,1.137-3.247,1.2-5.161,1.258-.513.016-1.03.035-1.539.072a6.812,6.812,0,0,1,3.917-1.418,1,1,0,0,0-.07-2,8.812,8.812,0,0,0-4.991,1.78C37.133,24.421,38.473,23,40.49,23.074Zm-22.3-.965a10.088,10.088,0,0,0,5.317.965c2.084-.086,3.406,1.474,4.225,3.157a8.816,8.816,0,0,0-4.98-1.772,1,1,0,1,0-.07,2A6.818,6.818,0,0,1,26.6,27.877c-.509-.038-1.026-.057-1.54-.073-1.913-.06-3.891-.121-5.159-1.258A6.06,6.06,0,0,1,18.193,22.109Z" style="fill:#303135"/><path d="M63.935,34.287a1,1,0,0,0-.89-.643l-3.21-.143a24.469,24.469,0,0,0-8.964-18.616l-.669-.539A1,1,0,0,0,48.648,15.5l.363.887a44.531,44.531,0,0,1,3.273,16.774l-3.138-.141a1.014,1.014,0,0,0-.949.571,1,1,0,0,0,.157,1.094l6.768,7.579a1,1,0,0,0,.712.334h.034a.994.994,0,0,0,.7-.284L63.7,35.359A1,1,0,0,0,63.935,34.287Zm-8.017,5.868-4.49-5.028,1.8.081a.978.978,0,0,0,.726-.268,1,1,0,0,0,.319-.707,46.628,46.628,0,0,0-2.3-15.573A22.615,22.615,0,0,1,57.83,34.432a1,1,0,0,0,.955,1.024l1.864.083Z" style="fill:#303135"/><path d="M15.5,15.351l.887-.362A44.542,44.542,0,0,1,33.1,11.716h.06l-.141,3.138a1,1,0,0,0,1.665.792l7.58-6.768a1,1,0,0,0,.049-1.444L35.359.3a1,1,0,0,0-1.714.653L33.5,4.165a24.469,24.469,0,0,0-18.615,8.964l-.539.668A1,1,0,0,0,15.5,15.351ZM34.432,6.169a.959.959,0,0,0,1.024-.954l.083-1.865,4.617,4.732-5.028,4.49.08-1.8a1,1,0,0,0-.974-1.044c-.376-.01-.752-.014-1.129-.014a46.651,46.651,0,0,0-14.445,2.31A22.634,22.634,0,0,1,34.432,6.169Z" style="fill:#303135"/><path d="M8.878,21.733a1,1,0,0,0-1.444-.05L.3,28.641a1,1,0,0,0,.654,1.715l3.209.143a24.469,24.469,0,0,0,8.964,18.615l.668.539A1,1,0,0,0,15.351,48.5l-.362-.887a44.531,44.531,0,0,1-3.273-16.774l3.139.141a1,1,0,0,0,.791-1.665Zm1.9,7.059a1.053,1.053,0,0,0-.727.268,1,1,0,0,0-.317.707,46.58,46.58,0,0,0,2.3,15.573A22.626,22.626,0,0,1,6.169,29.568a1,1,0,0,0-.955-1.024l-1.863-.083,4.731-4.616,4.49,5.028Z" style="fill:#303135"/><path d="M48.5,48.649l-.887.362a44.518,44.518,0,0,1-16.774,3.273l.141-3.139a1,1,0,0,0-1.665-.791l-7.579,6.768a1,1,0,0,0-.05,1.444L28.641,63.7a1,1,0,0,0,1.715-.654l.143-3.209a24.477,24.477,0,0,0,18.615-8.964l.539-.668A1,1,0,0,0,48.5,48.649ZM29.568,57.831a.98.98,0,0,0-1.024.955l-.083,1.863-4.616-4.731,5.028-4.49-.081,1.8a1,1,0,0,0,.975,1.044,46.532,46.532,0,0,0,15.573-2.3A22.659,22.659,0,0,1,29.568,57.831Z" style="fill:#303135"/></g></svg>