<svg xmlns="http://www.w3.org/2000/svg" viewBox="0 0 64 64"><title>Artboard-32</title><g id="Container_Recyclev" data-name="Container Recyclev"><path d="M37.014,43.661a1,1,0,0,0-.367,1.365l2.594,4.5-3.42,0,.546-.494a1,1,0,1,0-1.343-1.482l-2.466,2.233a1.02,1.02,0,0,0-.074,1.42l2.241,2.471a1,1,0,1,0,1.481-1.344l-.729-.8,3.921,0h0a1.908,1.908,0,0,0,1.653-2.86l-2.675-4.64A1,1,0,0,0,37.014,43.661Z" style="fill:#303135"/><path d="M23.9,45.631l1.06-.229L23,48.8a1.908,1.908,0,0,0,1.653,2.862h5.466a1,1,0,0,0,0-2H24.813L26.522,46.7l.155.721a1,1,0,0,0,.977.789,1.032,1.032,0,0,0,.212-.022A1,1,0,0,0,28.632,47l-.7-3.253a1.03,1.03,0,0,0-1.193-.773l-3.259.705a1,1,0,1,0,.422,1.955Z" style="fill:#303135"/><path d="M27.886,42.061a1,1,0,0,0,1.366-.367l2.657-4.6,1.709,2.966-.7-.226a1,1,0,0,0-.613,1.9l3.167,1.021a1.023,1.023,0,0,0,1.267-.647l1.019-3.175a1,1,0,1,0-1.9-.612l-.332,1.033-1.96-3.4A1.888,1.888,0,0,0,31.91,35h0a1.889,1.889,0,0,0-1.653.954l-2.736,4.74A1,1,0,0,0,27.886,42.061Z" style="fill:#303135"/><path d="M55,54a3,3,0,1,0,3,3A3,3,0,0,0,55,54Zm0,4a1,1,0,1,1,1-1A1,1,0,0,1,55,58Z" style="fill:#303135"/><path d="M56,50.08V33h2a1,1,0,0,0,1-1V26a1,1,0,0,0-1-1H54.853c-1.078-5.525-6.552-7.665-9.866-8.1-1.023-1.819-3.35-3.619-6.4-4.743a6.5,6.5,0,0,0-.321-1.338,7.59,7.59,0,0,0,2.394-1.357,7.41,7.41,0,0,0,2.362-3.644c.122-.429.216-.87.309-1.309a7.419,7.419,0,0,1,.779-2.374,2.447,2.447,0,0,1,.308-.438A1,1,0,0,0,44.61.6.985.985,0,0,0,43.667,0,12.024,12.024,0,0,0,33.22,6.468,6.545,6.545,0,0,0,32,6.35a6.65,6.65,0,0,0-1.221.117A12.022,12.022,0,0,0,20.333,0a1,1,0,0,0-.75,1.692,2.555,2.555,0,0,1,.32.458A7.423,7.423,0,0,1,20.67,4.5c.093.439.187.88.309,1.307A7.408,7.408,0,0,0,23.345,9.46a7.577,7.577,0,0,0,2.383,1.351,6.6,6.6,0,0,0-.346,1.556,18.2,18.2,0,0,0-6.777,5.072c-7.477.3-9.128,5.373-9.5,7.561H6a1,1,0,0,0-1,1v6a1,1,0,0,0,1,1H8V50.08A7,7,0,1,0,15.92,58H48.08A7,7,0,1,0,56,50.08ZM41.867,2.207a13.732,13.732,0,0,0-.494,1.883c-.083.394-.166.789-.277,1.178a5.51,5.51,0,0,1-3.791,3.759c-.075-.1-.147-.2-.226-.294l1.959-1.842a1,1,0,1,0-1.37-1.457l-2.1,1.974c-.14-.09-.282-.178-.428-.258A10.122,10.122,0,0,1,41.867,2.207ZM24.635,7.932A5.5,5.5,0,0,1,22.9,5.265c-.11-.386-.193-.781-.276-1.175a13.827,13.827,0,0,0-.493-1.883,10.116,10.116,0,0,1,6.721,4.936c-.147.079-.289.168-.43.258L26.332,5.434a1,1,0,1,0-1.37,1.457l1.951,1.834c-.081.1-.155.2-.231.3A5.517,5.517,0,0,1,24.635,7.932ZM32,8.35a4.588,4.588,0,0,1,4.375,3.139A19.048,19.048,0,0,0,31.989,11a17.743,17.743,0,0,0-4.425.612A4.656,4.656,0,0,1,32,8.35ZM19.1,19.427a1,1,0,0,0,.762-.367A15.622,15.622,0,0,1,32.011,13c4.411-.075,10.153,2.213,11.4,5.213a1,1,0,0,0,.842.613c.311.026,7.2.668,8.56,6.173H11.125C11.5,23.176,13,19.505,19.1,19.427ZM7,27H57v4H7Zm47,6V50.08A7,7,0,0,0,48.08,56H15.92A7,7,0,0,0,10,50.08V33ZM9,62a5,5,0,1,1,5-5A5.006,5.006,0,0,1,9,62Zm46,0a5,5,0,1,1,5-5A5.006,5.006,0,0,1,55,62Z" style="fill:#303135"/><path d="M9,54a3,3,0,1,0,3,3A3,3,0,0,0,9,54Zm0,4a1,1,0,1,1,1-1A1,1,0,0,1,9,58Z" style="fill:#303135"/></g></svg>