<svg xmlns="http://www.w3.org/2000/svg" viewBox="0 0 64 64"><title>Artboard-31</title><g id="Barrel"><path d="M37.122,30.829a1,1,0,0,0-.367,1.365l2.663,4.62-3.573,0,.594-.538A1,1,0,1,0,35.1,34.79l-2.516,2.277a1.018,1.018,0,0,0-.074,1.42l2.285,2.52a1,1,0,1,0,1.481-1.344L35.5,38.81l4.043,0h0a1.925,1.925,0,0,0,1.668-2.887L38.488,31.2A1,1,0,0,0,37.122,30.829Z" style="fill:#303135"/><path d="M30.083,36.946H24.638l1.784-3.091.169.785a1,1,0,0,0,1.955-.422L27.832,30.9a1.031,1.031,0,0,0-1.193-.773l-3.325.719a1,1,0,0,0,.423,1.955l1.125-.243-2.02,3.5a1.926,1.926,0,0,0,1.668,2.889h5.573a1,1,0,0,0,0-2Z" style="fill:#303135"/><path d="M35.547,29.871a1.03,1.03,0,0,0,1.266-.646l1.04-3.239a1,1,0,0,0-1.9-.611l-.352,1.1-2.021-3.506A1.906,1.906,0,0,0,31.909,22h0a1.906,1.906,0,0,0-1.668.963L27.448,27.8a1,1,0,0,0,1.733,1l2.726-4.722,1.786,3.1-.763-.246a1,1,0,1,0-.614,1.9Z" style="fill:#303135"/><path d="M56,16a3,3,0,0,0-3-3V6a3,3,0,0,0,0-6H11a3,3,0,0,0,0,6v7a3,3,0,0,0,0,6V29a3,3,0,0,0,0,6V45a3,3,0,0,0,0,6v7a3,3,0,0,0,0,6H53a3,3,0,0,0,0-6V51a3,3,0,0,0,0-6V35a3,3,0,0,0,0-6V19A3,3,0,0,0,56,16ZM10,3a1,1,0,0,1,1-1H53a1,1,0,0,1,0,2H11A1,1,0,0,1,10,3Zm3,3H51v7H13ZM10,16a1,1,0,0,1,1-1H53a1,1,0,0,1,0,2H11A1,1,0,0,1,10,16ZM44.909,30.516c.011.1.022.2.031.3.036.391.06.786.06,1.187s-.024.8-.06,1.187c-.009.1-.02.2-.031.3a13,13,0,1,1,0-2.968ZM13,19H24.549A15.037,15.037,0,0,0,17.3,29H13ZM10,32a1,1,0,0,1,1-1h6.051c-.022.332-.051.662-.051,1s.029.668.051,1H11A1.007,1.007,0,0,1,10,32Zm3,3h4.3a15.037,15.037,0,0,0,7.247,10H13ZM54,61a1,1,0,0,1-1,1H11a1,1,0,0,1,0-2H53A1,1,0,0,1,54,61Zm-3-3H13V51H51Zm3-10a1,1,0,0,1-1,1H11a1,1,0,0,1,0-2H53A1,1,0,0,1,54,48Zm-3-3H39.451A15.037,15.037,0,0,0,46.7,35H51Zm3-13a1,1,0,0,1-1,1H46.967c.022-.335.033-.67.033-1s-.011-.665-.033-1H53A1.007,1.007,0,0,1,54,32Zm-3-3H46.7a15.037,15.037,0,0,0-7.247-10H51Z" style="fill:#303135"/></g></svg>