<svg xmlns="http://www.w3.org/2000/svg" viewBox="0 0 64 64"><title>Artboard-39</title><g id="Fuel"><path d="M53,6H31.485a6.955,6.955,0,0,0-4.95,2.051L24,10.586,21.414,8l1.293-1.293a1,1,0,0,0,0-1.414l-4-4a1,1,0,0,0-1.414,0l-11,11a1,1,0,0,0,0,1.414l4,4a1,1,0,0,0,1.414,0L13,16.414,15.586,19l-2.535,2.535A6.955,6.955,0,0,0,11,26.485V62a1,1,0,0,0,1,1H53a5.006,5.006,0,0,0,5-5V11A5.006,5.006,0,0,0,53,6ZM11,15.586,8.414,13,18,3.414,20.586,6ZM14.414,15,20,9.414,22.586,12,17,17.586ZM56,58a3,3,0,0,1-3,3H13V26.485a4.971,4.971,0,0,1,1.465-3.536L27.949,9.465A4.971,4.971,0,0,1,31.485,8H53a3,3,0,0,1,3,3Z" style="fill:#303135"/><path d="M53,10H35a4,4,0,0,0,0,8H53a1,1,0,0,0,1-1V11A1,1,0,0,0,53,10Zm-1,6H35a2,2,0,0,1,0-4H52Z" style="fill:#303135"/><path d="M53,21H22a1,1,0,0,0-.707.293l-5,5A1,1,0,0,0,16,27V58a1,1,0,0,0,1,1H53a1,1,0,0,0,1-1V22A1,1,0,0,0,53,21ZM52,57H18V27.414L22.414,23H52Z" style="fill:#303135"/><path d="M41.636,40.169a1,1,0,0,0-.367,1.365l3.46,6a.176.176,0,0,1-.151.264h0L39.183,47.8l1.271-1.15a1,1,0,0,0-1.342-1.483l-3.193,2.891a1.021,1.021,0,0,0-.075,1.422l2.9,3.2a1,1,0,0,0,1.483-1.344L38.835,49.8l5.74.007h0a2.176,2.176,0,0,0,1.885-3.262l-3.461-6A1,1,0,0,0,41.636,40.169Z" style="fill:#303135"/><path d="M24.457,42.176l2.02-.437L23.61,46.706a2.176,2.176,0,0,0,1.884,3.263h7.073a1,1,0,0,0,0-2H25.494a.176.176,0,0,1-.151-.264l2.7-4.668.361,1.679a1,1,0,0,0,.977.789.969.969,0,0,0,.212-.023,1,1,0,0,0,.766-1.188l-.907-4.21a1.033,1.033,0,0,0-1.193-.775l-4.219.912a1,1,0,0,0,.422,1.955Z" style="fill:#303135"/><path d="M29.823,37.588a1,1,0,0,0,1.366-.366l3.541-6.134A.165.165,0,0,1,34.882,31h0a.164.164,0,0,1,.151.087l2.7,4.679L36.1,35.24a1,1,0,0,0-.614,1.905l4.1,1.319a1.034,1.034,0,0,0,1.269-.647l1.319-4.11a1,1,0,1,0-1.9-.611l-.633,1.969-2.868-4.977A2.155,2.155,0,0,0,34.883,29h0A2.154,2.154,0,0,0,33,30.088l-3.541,6.134A1,1,0,0,0,29.823,37.588Z" style="fill:#303135"/></g></svg>