<svg xmlns="http://www.w3.org/2000/svg" viewBox="0 0 64 64"><title>Artboard-24</title><g id="Battery_Recycle" data-name="Battery Recycle"><path d="M63.935,34.287a1,1,0,0,0-.89-.642l-3.21-.144a24.467,24.467,0,0,0-8.964-18.615l-.669-.539A1,1,0,0,0,48.648,15.5l.363.887a44.534,44.534,0,0,1,3.273,16.774l-3.138-.141a.984.984,0,0,0-.949.571,1,1,0,0,0,.157,1.094l6.768,7.58a1,1,0,0,0,.712.333h.034a1,1,0,0,0,.7-.285L63.7,35.359A1,1,0,0,0,63.935,34.287Zm-8.017,5.869-4.49-5.028,1.8.08a.94.94,0,0,0,.726-.268,1,1,0,0,0,.319-.706,46.633,46.633,0,0,0-2.3-15.574A22.616,22.616,0,0,1,57.83,34.432a1,1,0,0,0,.955,1.024l1.864.083Z" style="fill:#303135"/><path d="M33.164,11.716l-.141,3.138a1,1,0,0,0,1.665.792l7.58-6.768a1,1,0,0,0,.049-1.444L35.359.3a1,1,0,0,0-1.714.653L33.5,4.165a24.467,24.467,0,0,0-18.615,8.964l-.539.669A1,1,0,0,0,15.5,15.352l.887-.363A44.549,44.549,0,0,1,33.1,11.716ZM34.432,6.17a.977.977,0,0,0,1.024-.955l.083-1.864,4.617,4.731-5.028,4.49.08-1.8a1,1,0,0,0-.974-1.045c-.376-.008-.752-.013-1.129-.013a46.69,46.69,0,0,0-14.445,2.31A22.592,22.592,0,0,1,34.432,6.17Z" style="fill:#303135"/><path d="M8.878,21.732a1,1,0,0,0-.712-.333.958.958,0,0,0-.732.284L.3,28.641a1,1,0,0,0,.653,1.714l3.21.144a24.467,24.467,0,0,0,8.964,18.615l.669.539A1,1,0,0,0,15.352,48.5l-.363-.887a44.534,44.534,0,0,1-3.273-16.774l3.138.141a.96.96,0,0,0,.949-.571,1,1,0,0,0-.157-1.094Zm1.9,7.06a.966.966,0,0,0-.726.268,1,1,0,0,0-.319.706,46.633,46.633,0,0,0,2.3,15.574A22.616,22.616,0,0,1,6.17,29.568a1,1,0,0,0-.955-1.024l-1.864-.083,4.731-4.617,4.49,5.028Z" style="fill:#303135"/><path d="M48.5,48.648l-.887.363A44.549,44.549,0,0,1,30.9,52.284h-.06l.141-3.138a1,1,0,0,0-1.665-.792l-7.58,6.768a1,1,0,0,0-.049,1.444L28.641,63.7a1,1,0,0,0,1.714-.653l.144-3.21a24.467,24.467,0,0,0,18.615-8.964l.539-.669A1,1,0,0,0,48.5,48.648ZM29.568,57.83h-.025a1,1,0,0,0-1,.955l-.083,1.864-4.617-4.731,5.028-4.49-.08,1.8a1,1,0,0,0,.974,1.045,46.784,46.784,0,0,0,15.574-2.3A22.648,22.648,0,0,1,29.568,57.83Z" style="fill:#303135"/><path d="M24.042,43.713a1,1,0,0,0,1.739.912L30.281,39H41a1,1,0,0,0,1-1V37h3a1,1,0,0,0,1-1V28a1,1,0,0,0-1-1H42V26a1,1,0,0,0-1-1H34.078l1.257-2.56a1,1,0,0,0-.9-1.44H28.279a1,1,0,0,0-.915.6l-1.5,3.4H19a1,1,0,0,0-1,1V38a1,1,0,0,0,1,1h6.456ZM44,29v6H42V29Zm-4-2V37H31.881l5.9-7.375A1,1,0,0,0,37,28H32.6l.491-1ZM28.932,23h3.9c-3.454,7.035.718-1.48-2.73,5.56a1,1,0,0,0,.049.969A1.046,1.046,0,0,0,31,30h3.919l-7.481,9.351c1.979-6.593-1.3,4.348,1.52-5.064A1,1,0,0,0,28,33H24.532ZM26.056,37H20V27h4.987l-2.9,6.6A1,1,0,0,0,23,35h3.656Z" style="fill:#303135"/></g></svg>