<svg xmlns="http://www.w3.org/2000/svg" viewBox="0 0 64 64"><title>Artboard-19</title><g id="Shirt_recycle" data-name="Shirt recycle"><path d="M37.123,38.829a1,1,0,0,0-.367,1.365l2.662,4.62-3.573,0,.594-.538A1,1,0,1,0,35.1,42.79l-2.516,2.277a1.021,1.021,0,0,0-.074,1.42l2.284,2.52a1,1,0,1,0,1.482-1.344L35.5,46.81l4.044,0h0a1.925,1.925,0,0,0,1.669-2.888L38.488,39.2A1,1,0,0,0,37.123,38.829Z" style="fill:#303135"/><path d="M30.083,44.946H24.638l1.785-3.091.169.785a1,1,0,0,0,.976.789,1.025,1.025,0,0,0,.212-.022,1,1,0,0,0,.767-1.188L27.832,38.9a1.031,1.031,0,0,0-1.192-.774l-3.325.719a1,1,0,0,0,.422,1.955l1.125-.243-2.02,3.5a1.926,1.926,0,0,0,1.668,2.889h5.573a1,1,0,0,0,0-2Z" style="fill:#303135"/><path d="M35.547,37.871a1.024,1.024,0,0,0,1.266-.647l1.041-3.238a1,1,0,0,0-1.905-.611l-.352,1.1-2.021-3.508a1.927,1.927,0,0,0-3.337,0L27.448,35.8a1,1,0,1,0,1.733,1l2.726-4.722,1.786,3.1-.763-.245a1,1,0,0,0-.614,1.9Z" style="fill:#303135"/><path d="M63.4,24.083l-23-10A1,1,0,0,0,39,15a7.037,7.037,0,0,1-.075.969L33,11.5V9.9A5,5,0,1,0,27,5a1,1,0,0,0,2,0,3,3,0,1,1,3,3,1,1,0,0,0-1,1v2.5l-5.925,4.467A7.037,7.037,0,0,1,25,15a1,1,0,0,0-1.4-.917l-23,10a1,1,0,0,0-.525,1.3l5,12a1,1,0,0,0,1.329.529L14,34.539V63a1,1,0,0,0,1,1H40a1.005,1.005,0,0,0,.707-.293l9-9a1,1,0,0,0,.2-.293c.014-.031.022-.061.033-.093a1,1,0,0,0,.052-.26c0-.021.012-.04.012-.061V34.539l7.594,3.375a1,1,0,0,0,1.329-.529l5-12A1,1,0,0,0,63.4,24.083ZM32,13.252l6.31,4.757a6.984,6.984,0,0,1-12.62,0Zm9,47.334V55h5.586ZM57.471,35.67l-8.065-3.584A1,1,0,0,0,48,33V53H40a1,1,0,0,0-1,1v8H16V33a1,1,0,0,0-1.406-.914L6.529,35.67,2.3,25.524,23.12,16.473a9,9,0,0,0,17.76,0L61.7,25.524Z" style="fill:#303135"/></g></svg>