<?xml version="1.0" encoding="utf-8"?>
<!-- Generator: Adobe Illustrator 24.1.2, SVG Export Plug-In . SVG Version: 6.00 Build 0)  -->
<svg version="1.1" id="Layer_1" xmlns="http://www.w3.org/2000/svg" xmlns:xlink="http://www.w3.org/1999/xlink" x="0px" y="0px"
	 viewBox="0 0 800 800" style="enable-background:new 0 0 800 800;" xml:space="preserve">
<style type="text/css">
	.st0{fill:#060807;}
	.st1{fill:#FFFFFF;}
</style>
<g>
	<rect y="0" class="st0" width="800" height="800"/>
	<path class="st1" d="M459.3,193.8h28v152h76.4v26.8H459.3V193.8z"/>
	<path class="st1" d="M280.6,590.5c-13.9-8-24.6-19.2-32.6-33.1s-11.8-29.4-11.8-45.9s3.7-32,11.8-45.9c7.9-13.6,19.1-25,32.6-33.1
		c28.4-16.4,63.4-16.4,91.9,0c13.9,8,24.6,19.2,32.6,33.1s11.8,28.8,11.8,45.9c0,16.6-3.7,32-11.8,45.9s-18.7,25.1-32.6,33.1
		s-28.8,11.8-45.9,11.8S294,598.5,280.6,590.5z M358.1,568.1c9.5-5.4,17.3-13.4,22.4-23c5.3-9.6,8-20.8,8-33.6c0-12.8-2.7-24-8-33.6
		c-5.2-9.6-12.9-17.6-22.4-23c-9.6-5.3-20.5-8.1-31.5-8c-11-0.1-21.9,2.6-31.5,8c-9.5,5.4-17.3,13.4-22.4,23
		c-5.7,10.3-8.6,21.9-8.5,33.6c0,12.8,2.7,24,8.5,33.7c5.3,9.5,13.1,17.4,22.4,23c9.6,5.3,20.5,8.1,31.5,8
		C337.6,576.7,348.6,573.9,358.1,568.1z"/>
	<polyline class="st1" points="458.5,497.8 458.5,538.2 472.9,521.3 528.5,601.8 562.9,601.8 562.9,600.2 491.7,499.8 557.3,424.5 
		557.3,423 522.5,423 	"/>
	<polyline class="st1" points="311.7,229.8 317.7,247.8 336.5,301 283.3,301 274.1,327 346.1,327 362.1,372.5 392.9,372.5 
		325.7,193.8 	"/>
	<path class="st1" d="M459.3,193.8h28v152h76.4v26.8H459.3V193.8z"/>
	<path class="st1" d="M280.6,590.5c-13.9-8-24.6-19.2-32.6-33.1s-11.8-29.4-11.8-45.9s3.7-32,11.8-45.9c7.9-13.6,19.1-25,32.6-33.1
		c28.4-16.4,63.4-16.4,91.9,0c13.9,8,24.6,19.2,32.6,33.1s11.8,28.8,11.8,45.9c0,16.6-3.7,32-11.8,45.9s-18.7,25.1-32.6,33.1
		s-28.8,11.8-45.9,11.8S294,598.5,280.6,590.5z M358.1,568.1c9.5-5.4,17.3-13.4,22.4-23c5.3-9.6,8-20.8,8-33.6c0-12.8-2.7-24-8-33.6
		c-5.2-9.6-12.9-17.6-22.4-23c-9.6-5.3-20.5-8.1-31.5-8c-11-0.1-21.9,2.6-31.5,8c-9.5,5.4-17.3,13.4-22.4,23
		c-5.7,10.3-8.6,21.9-8.5,33.6c0,12.8,2.7,24,8.5,33.7c5.3,9.5,13.1,17.4,22.4,23c9.6,5.3,20.5,8.1,31.5,8
		C337.6,576.7,348.6,573.9,358.1,568.1z"/>
	<polygon class="st1" points="458.5,497.8 458.5,538.2 472.9,521.3 528.5,601.8 562.9,601.8 562.9,600.2 491.7,499.8 557.3,424.5 
		557.3,423 522.5,423 	"/>
	<polyline class="st1" points="311.7,229.8 317.7,247.8 336.5,301 283.3,301 274.1,327 346.1,327 362.1,372.5 392.9,372.5 
		325.7,193.8 	"/>
</g>
</svg>
