<svg width="750" height="146" viewBox="0 0 750 146" fill="none" xmlns="http://www.w3.org/2000/svg">
<path d="M148.412 32.6523C146.998 27.2413 144.564 22.2502 141.338 17.881L139.488 15.5564C135.352 10.6819 130.158 6.73255 124.258 4.06594C119.056 1.70254 113.319 0.334249 107.271 0.20986C106.944 0.194311 106.625 0.194311 106.299 0.194311C99.9627 0.194311 93.9375 1.54705 88.511 3.9882C81.623 7.06684 75.6911 11.8869 71.2597 17.881C68.0334 22.2502 65.6 27.2413 64.1851 32.6523H64.0218L53.1222 79.8659C52.819 81.1643 53.8063 82.4082 55.1435 82.4082H104.503C105.482 82.4082 106.33 81.7318 106.555 80.7755L108.584 71.9905L108.942 70.4201L110.124 65.3046L111.873 57.7246C113.77 49.5226 111.329 40.8387 105.218 35.0468C104.347 34.2227 103.391 33.4219 102.357 32.6523C101.65 32.1314 100.872 31.7116 100.087 31.3151C96.9385 29.6825 93.37 28.7651 89.5839 28.7651C89.2341 28.7651 88.892 28.7651 88.5499 28.7884C86.653 28.8739 85.5412 26.6505 86.8473 25.2744C90.1514 21.7915 94.3729 19.1948 99.1308 17.881C100.507 17.5 101.922 17.2279 103.376 17.0724C104.34 16.9636 105.311 16.9092 106.299 16.9092C108.779 16.9092 111.189 17.2435 113.467 17.881C116.981 18.8605 119.445 20.3144 120.37 20.8974C124.841 23.704 127.111 27.1169 130.011 31.4861C130.889 32.8077 131.729 34.2227 132.343 36.1507C133.058 38.3975 133.113 40.2478 133.12 40.8153C133.144 42.4169 132.895 42.6034 132.343 46.2574C131.853 49.5382 131.791 49.9113 131.387 51.6994C130.928 53.7285 130.675 55.2617 130.384 56.4246C129.591 59.595 128.673 62.327 128.005 65.3046L126.201 73.1333L124.063 82.4082L123.783 83.6054L122.866 87.5937C121.358 94.1163 115.55 98.7343 108.857 98.7343H43.2565C36.9282 98.7343 32.248 92.8491 33.6707 86.6841L44.1117 41.4217C44.2283 40.9009 44.1506 40.3567 43.8862 39.898L31.525 18.4874L31.1751 17.881H49.7714C50.5722 17.881 51.2952 17.4223 51.6528 16.7071C54.094 11.8869 57.1648 7.44779 60.7721 3.49841C61.9927 2.16122 61.0209 -4.81462e-05 59.2017 -4.81462e-05H0.0310618L-3.55882e-05 0.13989L25.1345 43.6841C25.3988 44.135 25.4765 44.6792 25.3599 45.1845L14.6935 91.3953L14.6391 91.7141C14.5769 92.3593 14.5536 93.0202 14.5536 93.681C14.5536 95.4147 14.7479 97.1095 15.1211 98.7343C16.6449 105.545 21.2084 111.204 27.3035 114.229C30.3744 115.76 33.834 116.615 37.4879 116.615H116.157C125.836 116.553 134.1 110.489 137.396 101.953L137.49 101.634L149.283 50.5333L149.314 50.3622C149.384 49.9036 149.454 49.4449 149.501 48.9706C149.711 47.2525 149.82 45.5033 149.82 43.7229C149.82 39.8902 149.322 36.1818 148.397 32.6445L148.412 32.6523ZM91.9473 48.9784C93.4089 50.269 94.4584 52.026 94.8471 54.0162C94.9638 54.5837 95.026 55.1746 95.026 55.781C95.026 56.6362 93.8598 61.3941 92.4993 66.6573C92.1728 67.9167 91.0377 68.803 89.7316 68.803H77.1449C75.3102 68.803 73.9497 67.0927 74.3617 65.3046C74.3617 65.3046 75.5901 60.2512 76.9506 55.781C77.7358 53.1999 78.1323 50.6655 79.9981 49.0095C79.9981 49.0017 79.9981 48.994 79.9981 48.9784H80.0448C81.6385 47.579 83.7143 46.7394 85.9999 46.7394C88.2856 46.7394 90.3691 47.5868 91.9551 48.9784H91.9473Z" fill="url(#paint0_linear_1_15)"/>
<path d="M165.594 99.9971C165.594 98.4541 165.73 96.7297 166.002 94.8237L180.569 12.0495C183.474 11.7773 186.151 11.6411 188.602 11.6411L197.179 12.0495L191.052 46.6295C195.046 46.2665 198.994 46.085 202.897 46.085C211.519 46.085 217.918 47.764 222.093 51.1222C226.268 54.3896 228.355 59.9714 228.355 67.8676C228.355 72.4057 227.856 76.8984 226.858 81.3457C225.95 85.793 224.452 90.1041 222.365 94.2791C220.277 98.3634 217.736 101.994 214.741 105.17C211.746 108.256 208.025 110.752 203.577 112.658C199.221 114.473 194.456 115.381 189.282 115.381C181.386 115.381 175.441 114.292 171.448 112.114C167.545 109.935 165.594 105.897 165.594 99.9971ZM182.611 94.9598C182.611 97.0473 183.292 98.5449 184.654 99.4525C186.015 100.269 188.329 100.678 191.597 100.678C196.226 100.678 200.083 98.9079 203.169 95.3683C206.345 91.8286 208.478 87.8805 209.568 83.5239C210.657 79.0766 211.201 74.4932 211.201 69.7736C211.201 66.4154 210.384 64.101 208.751 62.8304C207.117 61.469 204.303 60.8336 200.31 60.9244L188.329 61.3328L182.884 92.237C182.702 93.5077 182.611 94.4153 182.611 94.9598Z" fill="white"/>
<path d="M234.567 114.564L246.139 46.6295C248.771 46.3572 251.493 46.2211 254.307 46.2211L262.748 46.6295L250.904 114.564C248.09 114.837 245.367 114.973 242.735 114.973L234.567 114.564ZM255.941 35.3298L248.181 34.9213C248.271 32.2893 248.498 29.748 248.861 27.2974C249.315 24.8469 249.724 23.0316 250.087 21.8517L250.631 20.0819C252.81 19.8096 255.532 19.6735 258.8 19.6735L267.649 20.0819C267.558 22.5324 267.286 25.0284 266.832 27.5697C266.469 30.0202 266.106 31.8808 265.743 33.1515L265.198 34.9213C262.385 35.1936 259.299 35.3298 255.941 35.3298Z" fill="white"/>
<path d="M292.053 115.109C284.066 115.109 278.122 114.065 274.219 111.978C270.316 109.89 268.365 105.897 268.365 99.9971C268.365 99.0895 268.546 97.365 268.909 94.8237L279.528 34.2406L297.091 27.9781L293.959 46.6295H311.386C311.386 48.8078 311.159 51.1222 310.705 53.5728C310.251 56.0233 309.797 57.9293 309.343 59.2907L308.663 61.3328H291.237L285.927 92.237C285.746 93.5077 285.655 94.3699 285.655 94.8237C285.655 96.8204 286.335 98.2726 287.697 99.1802C289.149 99.9971 291.509 100.405 294.776 100.405C294.776 102.311 294.549 104.49 294.096 106.94C293.642 109.391 293.188 111.388 292.734 112.931L292.053 115.109Z" fill="white"/>
<path d="M312.831 145.332L304.254 144.924L318.277 65.9616C319.729 57.7931 322.679 52.3929 327.126 49.7608C331.664 47.1287 338.653 45.8127 348.092 45.8127C357.259 45.8127 364.066 47.5825 368.513 51.1222C372.96 54.5711 375.184 60.3798 375.184 68.5483C375.184 74.4478 374.412 80.075 372.869 85.4299C371.417 90.7848 369.194 95.6859 366.199 100.133C363.203 104.49 359.165 107.984 354.082 110.616C348.999 113.248 343.191 114.564 336.656 114.564H326.173L320.591 144.924C318.05 145.196 315.463 145.332 312.831 145.332ZM328.487 100.405H336.383C340.014 100.405 343.281 99.4525 346.186 97.5465C349.09 95.6405 351.359 93.1446 352.993 90.0587C354.626 86.9729 355.852 83.7508 356.669 80.3927C357.576 76.9437 358.03 73.4948 358.03 70.0459C358.03 66.6877 357.122 64.2826 355.307 62.8304C353.492 61.3782 350.179 60.6521 345.369 60.6521C342.011 60.6521 339.469 61.2421 337.745 62.422C336.02 63.5111 334.886 65.5532 334.341 68.5483L328.487 100.405Z" fill="white"/>
<path d="M382.43 90.1949C382.43 84.2954 383.02 78.8497 384.2 73.8579C385.471 68.7752 387.422 64.0557 390.054 59.6991C392.686 55.3426 396.407 51.9391 401.218 49.4885C406.119 46.9472 411.837 45.6765 418.372 45.6765C434.799 45.6765 443.013 53.3459 443.013 68.6845C443.013 72.1334 442.696 75.4916 442.06 78.759C437.522 103.174 425.542 115.381 406.119 115.381C398.313 115.381 392.414 113.248 388.42 108.982C384.427 104.626 382.43 98.3634 382.43 90.1949ZM398.495 88.9696C398.495 96.8658 401.944 100.814 408.842 100.814C412.018 100.814 414.787 99.8155 417.146 97.8188C419.506 95.8221 421.276 93.2354 422.456 90.0587C423.727 86.8821 424.634 83.7054 425.179 80.5288C425.814 77.3522 426.132 74.2663 426.132 71.2712C426.132 64.0103 422.637 60.3798 415.649 60.3798C412.472 60.3798 409.659 61.3328 407.208 63.2388C404.848 65.054 403.078 67.4592 401.898 70.4543C400.719 73.4494 399.856 76.4899 399.312 79.5758C398.767 82.6617 398.495 85.793 398.495 88.9696Z" fill="white"/>
<path d="M447.411 110.072C448.863 105.533 451.45 101.722 455.171 98.6357C458.802 100.542 462.931 101.495 467.56 101.495C470.283 101.495 472.779 100.859 475.048 99.5886C477.317 98.2272 478.452 95.8674 478.452 92.5093C478.452 90.5125 477.544 89.015 475.729 88.0166C474.004 87.0182 471.236 86.2014 467.424 85.5661C463.158 84.84 459.8 83.1155 457.35 80.3927C454.899 77.6698 453.674 74.1301 453.674 69.7736C453.674 53.7089 462.024 45.6765 478.724 45.6765C482.445 45.6765 485.894 46.0396 489.071 46.7657C492.247 47.4918 494.516 48.2178 495.878 48.9439L497.92 50.0331C496.831 54.3896 494.108 58.3377 489.751 61.8774C486.393 60.3345 482.354 59.563 477.635 59.563C472.915 59.563 470.555 62.1043 470.555 67.1869C470.555 69.0021 471.327 70.4089 472.87 71.4073C474.503 72.4057 477.09 73.2679 480.63 73.994C484.896 74.8109 488.345 76.6715 490.977 79.5758C493.609 82.3894 494.925 85.9291 494.925 90.1949C494.925 98.7264 492.429 105.08 487.437 109.255C482.445 113.339 475.456 115.381 466.471 115.381C462.296 115.381 458.62 114.973 455.444 114.156C452.267 113.248 450.134 112.341 449.045 111.433L447.411 110.072Z" fill="white"/>
<path d="M529.77 115.109C521.783 115.109 515.838 114.065 511.935 111.978C508.032 109.89 506.081 105.897 506.081 99.9971C506.081 99.0895 506.262 97.365 506.625 94.8237L517.245 34.2406L534.807 27.9781L531.676 46.6295H549.102C549.102 48.8078 548.875 51.1222 548.421 53.5728C547.967 56.0233 547.513 57.9293 547.06 59.2907L546.379 61.3328H528.953L523.643 92.237C523.462 93.5077 523.371 94.3699 523.371 94.8237C523.371 96.8204 524.052 98.2726 525.413 99.1802C526.865 99.9971 529.225 100.405 532.492 100.405C532.492 102.311 532.265 104.49 531.812 106.94C531.358 109.391 530.904 111.388 530.45 112.931L529.77 115.109Z" fill="white"/>
<path d="M572.754 115.381C555.51 115.381 546.887 107.031 546.887 90.331C546.887 82.4348 548.294 75.1285 551.108 68.4122C554.012 61.6959 558.414 56.2048 564.313 51.9391C570.213 47.6733 577.111 45.5404 585.007 45.5404C589 45.5404 593.312 45.6312 597.94 45.8127C602.569 45.9942 606.2 46.1757 608.832 46.3572L612.78 46.6295L600.663 114.564C591.224 115.109 581.921 115.381 572.754 115.381ZM585.007 60.516C578.109 60.3345 572.845 63.0573 569.214 68.6845C565.675 74.3117 563.905 80.8011 563.905 88.1527C563.905 96.8658 568.171 101.041 576.702 100.678L586.504 100.405L593.584 60.7883L585.007 60.516Z" fill="white"/>
<path d="M613.251 139.07C614.612 134.259 616.791 129.54 619.786 124.911C625.05 127.815 631.267 129.268 638.437 129.268C647.423 129.268 652.868 124.185 654.774 114.02C649.964 114.564 645.517 114.837 641.432 114.837C625.821 114.837 618.016 106.94 618.016 91.1479C618.016 85.6114 618.742 80.2565 620.194 75.0831C621.646 69.9098 623.779 65.0994 626.593 60.6521C629.406 56.1141 633.218 52.4836 638.029 49.7608C642.93 47.0379 648.466 45.6765 654.638 45.6765C658.995 45.6765 663.533 45.7673 668.252 45.9488C673.063 46.1303 676.784 46.3119 679.416 46.4934L683.228 46.6295L671.656 112.114C669.659 123.459 665.938 131.582 660.492 136.483C655.137 141.384 646.923 143.835 635.851 143.835C631.676 143.835 627.682 143.426 623.87 142.609C620.149 141.883 617.426 141.112 615.702 140.295L613.251 139.07ZM656.136 60.516C651.235 60.3345 647.105 61.9682 643.747 65.4171C640.389 68.7752 638.074 72.5872 636.803 76.853C635.533 81.1188 634.898 85.4753 634.898 89.9226C634.898 97.365 638.346 100.95 645.244 100.678L657.089 100.269L664.168 60.7883L656.136 60.516Z" fill="white"/>
<path d="M688.344 89.7864C688.344 84.1592 689.07 78.8043 690.522 73.7217C691.974 68.5483 694.107 63.8288 696.921 59.563C699.825 55.2972 703.728 51.8937 708.629 49.3524C713.53 46.8111 719.157 45.5404 725.51 45.5404C730.139 45.5404 734.087 46.2665 737.355 47.7187C740.713 49.1708 743.209 51.1222 744.843 53.5728C746.476 55.9325 747.611 58.3377 748.246 60.7883C748.972 63.2388 749.335 65.8255 749.335 68.5483C749.335 72.088 748.382 75.1739 746.476 77.806C744.57 80.438 742.165 82.4802 739.261 83.9323C736.447 85.3845 732.907 86.519 728.642 87.3359C724.376 88.1527 720.428 88.6973 716.797 88.9696C713.167 89.1511 709.037 89.2419 704.408 89.2419C704.318 90.1495 704.272 91.0571 704.272 91.9647C704.272 97.7734 708.901 100.678 718.159 100.678C721.517 100.678 724.83 100.36 728.097 99.7248C731.455 99.0894 733.951 98.4995 735.585 97.9549L738.035 97.002C739.306 99.8156 739.941 103.537 739.941 108.166C739.941 109.436 739.896 110.435 739.805 111.161C733.634 114.065 725.601 115.517 715.708 115.517C706.178 115.517 699.235 113.43 694.879 109.255C690.522 105.08 688.344 98.5903 688.344 89.7864ZM723.06 60.2437C718.703 60.2437 715.073 61.832 712.169 65.0087C709.264 68.1853 707.404 71.9519 706.587 76.3084C724.013 76.3084 732.726 73.3587 732.726 67.4592C732.726 62.6489 729.504 60.2437 723.06 60.2437Z" fill="white"/>
<defs>
<linearGradient id="paint0_linear_1_15" x1="150.045" y1="8.77573e-06" x2="21.3795" y2="130.221" gradientUnits="userSpaceOnUse">
<stop stop-color="#3DFFFF"/>
<stop offset="0.5" stop-color="#4897DF"/>
<stop offset="1" stop-color="#0457F1"/>
</linearGradient>
</defs>
</svg>
